<svg width="48" height="48" viewBox="0 0 48 48" fill="none" xmlns="http://www.w3.org/2000/svg">
<path d="M3.00684 19.356C1.34684 19.356 0.00683594 20.696 0.00683594 22.356V25.616C0.00683593 26.01 0.0844332 26.4001 0.235197 26.764C0.385961 27.128 0.60694 27.4587 0.885516 27.7373C1.16409 28.0159 1.49481 28.2369 1.85879 28.3876C2.22276 28.5384 2.61287 28.616 3.00684 28.616C3.4008 28.616 3.79091 28.5384 4.15489 28.3876C4.51886 28.2369 4.84958 28.0159 5.12816 27.7373C5.40673 27.4587 5.62771 27.128 5.77847 26.764C5.92924 26.4001 6.00684 26.01 6.00684 25.616V22.356C6.00684 20.696 4.66684 19.356 3.00684 19.356ZM44.9948 19.356C43.3348 19.356 41.9948 20.696 41.9948 22.356V25.616C41.9948 26.4116 42.3109 27.1747 42.8735 27.7373C43.4361 28.2999 44.1992 28.616 44.9948 28.616C45.7905 28.616 46.5535 28.2999 47.1162 27.7373C47.6788 27.1747 47.9948 26.4116 47.9948 25.616V22.356C47.9948 20.696 46.6548 19.356 44.9948 19.356ZM13.3608 29.174C11.7008 29.174 10.3608 30.514 10.3608 32.174V35.434C10.3608 36.2296 10.6769 36.9927 11.2395 37.5553C11.8021 38.1179 12.5652 38.434 13.3608 38.434C14.1565 38.434 14.9195 38.1179 15.4822 37.5553C16.0448 36.9927 16.3608 36.2296 16.3608 35.434V32.194C16.3608 30.534 15.0208 29.194 13.3608 29.194V29.174ZM13.3608 9.54C11.7008 9.54 10.3608 10.88 10.3608 12.54V23.254C10.3608 24.0496 10.6769 24.8127 11.2395 25.3753C11.8021 25.9379 12.5652 26.254 13.3608 26.254C14.1565 26.254 14.9195 25.9379 15.4822 25.3753C16.0448 24.8127 16.3608 24.0496 16.3608 23.254V12.516C16.3608 10.856 15.0208 9.516 13.3608 9.516V9.54ZM34.6368 9.54C32.9768 9.54 31.6368 10.88 31.6368 12.54V15.82C31.6368 16.6156 31.9529 17.3787 32.5155 17.9413C33.0781 18.5039 33.8412 18.82 34.6368 18.82C35.4325 18.82 36.1955 18.5039 36.7582 17.9413C37.3208 17.3787 37.6368 16.6156 37.6368 15.82V12.54C37.6368 10.88 36.2968 9.54 34.6368 9.54ZM24.0008 0C22.3408 0 21.0008 1.34 21.0008 3V6.26C21.0008 7.05565 21.3169 7.81871 21.8795 8.38132C22.4421 8.94393 23.2052 9.26 24.0008 9.26C24.7965 9.26 25.5595 8.94393 26.1222 8.38132C26.6848 7.81871 27.0008 7.05565 27.0008 6.26V3C27.0008 1.34 25.6608 0.002 24.0008 0.002V0ZM24.0008 38.71C22.3408 38.71 21.0008 40.05 21.0008 41.71V44.99C20.9995 45.384 21.0758 45.7743 21.2254 46.1388C21.3749 46.5033 21.5948 46.8347 21.8724 47.1143C22.1501 47.3938 22.4801 47.6158 22.8435 47.7678C23.207 47.9198 23.5969 47.9987 23.9908 48C24.3848 48.0013 24.7752 47.925 25.1396 47.7755C25.5041 47.6259 25.8356 47.406 26.1151 47.1284C26.3946 46.8507 26.6167 46.5208 26.7686 46.1573C26.9206 45.7938 26.9995 45.404 27.0008 45.01V41.73C27.0008 40.09 25.6608 38.73 24.0008 38.73V38.71ZM34.6388 21.796C32.9788 21.796 31.6388 23.156 31.6388 24.796V35.452C31.6388 36.2477 31.9549 37.0107 32.5175 37.5733C33.0801 38.1359 33.8432 38.452 34.6388 38.452C35.4345 38.452 36.1975 38.1359 36.7602 37.5733C37.3228 37.0107 37.6388 36.2477 37.6388 35.452V24.794C37.6388 23.134 36.2988 21.794 34.6388 21.794V21.796ZM24.0008 12.256C22.3408 12.256 21.0008 13.616 21.0008 15.256V32.712C21.0008 33.5077 21.3169 34.2707 21.8795 34.8333C22.4421 35.3959 23.2052 35.712 24.0008 35.712C24.7965 35.712 25.5595 35.3959 26.1222 34.8333C26.6848 34.2707 27.0008 33.5077 27.0008 32.712V15.276C27.0008 13.616 25.6608 12.276 24.0008 12.276V12.256Z" fill="#ED8A0A"/>
</svg>
