<svg width="41" height="44" viewBox="0 0 41 44" fill="none" xmlns="http://www.w3.org/2000/svg">
<path d="M3 20.25C3 10.7235 10.7235 3 20.25 3C29.7765 3 37.5 10.7235 37.5 20.25V24H31.5C31.1022 24 30.7206 24.158 30.4393 24.4393C30.158 24.7206 30 25.1022 30 25.5V40.5C30 40.8978 30.158 41.2794 30.4393 41.5607C30.7206 41.842 31.1022 42 31.5 42H33.75C35.5402 42 37.2571 41.2888 38.523 40.023C39.7888 38.7571 40.5 37.0402 40.5 35.25V20.25C40.5 9.066 31.434 0 20.25 0C9.066 0 0 9.066 0 20.25V35.25C0 37.0402 0.711159 38.7571 1.97703 40.023C3.2429 41.2888 4.95979 42 6.75 42H9C9.39782 42 9.77936 41.842 10.0607 41.5607C10.342 41.2794 10.5 40.8978 10.5 40.5V25.5C10.5 25.1022 10.342 24.7206 10.0607 24.4393C9.77936 24.158 9.39782 24 9 24H3V20.25ZM33 27H37.5V35.25C37.5 36.2446 37.1049 37.1984 36.4016 37.9016C35.6984 38.6049 34.7446 39 33.75 39H33V27ZM3 27H7.5V39H6.75C5.75544 39 4.80161 38.6049 4.09835 37.9016C3.39509 37.1984 3 36.2446 3 35.25V27ZM21.75 22.5C21.75 22.1022 21.592 21.7206 21.3107 21.4393C21.0294 21.158 20.6478 21 20.25 21C19.8522 21 19.4706 21.158 19.1893 21.4393C18.908 21.7206 18.75 22.1022 18.75 22.5V42C18.75 42.3978 18.908 42.7794 19.1893 43.0607C19.4706 43.342 19.8522 43.5 20.25 43.5C20.6478 43.5 21.0294 43.342 21.3107 43.0607C21.592 42.7794 21.75 42.3978 21.75 42V22.5ZM15 27C15.3978 27 15.7794 27.158 16.0607 27.4393C16.342 27.7206 16.5 28.1022 16.5 28.5V36C16.5 36.3978 16.342 36.7794 16.0607 37.0607C15.7794 37.342 15.3978 37.5 15 37.5C14.6022 37.5 14.2206 37.342 13.9393 37.0607C13.658 36.7794 13.5 36.3978 13.5 36V28.5C13.5 28.1022 13.658 27.7206 13.9393 27.4393C14.2206 27.158 14.6022 27 15 27ZM27 28.5C27 28.1022 26.842 27.7206 26.5607 27.4393C26.2794 27.158 25.8978 27 25.5 27C25.1022 27 24.7206 27.158 24.4393 27.4393C24.158 27.7206 24 28.1022 24 28.5V36C24 36.3978 24.158 36.7794 24.4393 37.0607C24.7206 37.342 25.1022 37.5 25.5 37.5C25.8978 37.5 26.2794 37.342 26.5607 37.0607C26.842 36.7794 27 36.3978 27 36V28.5Z" fill="#ED8A0A"/>
</svg>
