<svg width="48" height="48" viewBox="0 0 48 48" fill="none" xmlns="http://www.w3.org/2000/svg">
<path d="M44.2955 19.3125H32.2955C32.0893 19.3125 31.9205 19.4812 31.9205 19.6875V21.9375C31.9205 22.1438 32.0893 22.3125 32.2955 22.3125H44.2955C44.5018 22.3125 44.6705 22.1438 44.6705 21.9375V19.6875C44.6705 19.4812 44.5018 19.3125 44.2955 19.3125ZM38.0143 25.6875H32.2955C32.0893 25.6875 31.9205 25.8562 31.9205 26.0625V28.3125C31.9205 28.5188 32.0893 28.6875 32.2955 28.6875H38.0143C38.2205 28.6875 38.3893 28.5188 38.3893 28.3125V26.0625C38.3893 25.8562 38.2205 25.6875 38.0143 25.6875ZM22.3721 15.1172H20.3424C20.0518 15.1172 19.8174 15.3516 19.8174 15.6422V27.2672C19.8174 27.4359 19.8971 27.5906 20.033 27.6891L27.0127 32.7797C27.2471 32.9484 27.5752 32.9016 27.7439 32.6672L28.9486 31.0219V31.0172C29.1174 30.7828 29.0658 30.4547 28.8314 30.2859L22.8924 25.9922V15.6422C22.8971 15.3516 22.658 15.1172 22.3721 15.1172Z" fill="#ED8A0A"/>
<path d="M37.725 31.5887H35.0157C34.7532 31.5887 34.5047 31.7247 34.3641 31.9497C33.7688 32.8919 33.075 33.7637 32.2782 34.5606C30.9047 35.934 29.3063 37.0122 27.5297 37.7622C25.6875 38.5403 23.7328 38.934 21.7172 38.934C19.6969 38.934 17.7422 38.5403 15.9047 37.7622C14.1282 37.0122 12.5297 35.934 11.1563 34.5606C9.78284 33.1872 8.70472 31.5887 7.95472 29.8122C7.17659 27.9747 6.78284 26.02 6.78284 23.9997C6.78284 21.9794 7.17659 20.0294 7.95472 18.1872C8.70472 16.4106 9.78284 14.8122 11.1563 13.4387C12.5297 12.0653 14.1282 10.9872 15.9047 10.2372C17.7422 9.45905 19.7016 9.0653 21.7172 9.0653C23.7375 9.0653 25.6922 9.45905 27.5297 10.2372C29.3063 10.9872 30.9047 12.0653 32.2782 13.4387C33.075 14.2356 33.7688 15.1075 34.3641 16.0497C34.5047 16.2747 34.7532 16.4106 35.0157 16.4106H37.725C38.0485 16.4106 38.2547 16.0731 38.1094 15.7872C35.0532 9.70748 28.8563 5.75592 21.9375 5.67623C11.8078 5.54967 3.39378 13.8419 3.37503 23.9622C3.35628 34.1012 11.5735 42.3278 21.7125 42.3278C28.7203 42.3278 35.0203 38.3622 38.1094 32.2122C38.2547 31.9262 38.0438 31.5887 37.725 31.5887Z" fill="#ED8A0A"/>
</svg>
