<svg width="48" height="48" viewBox="0 0 48 48" fill="none" xmlns="http://www.w3.org/2000/svg">
<path d="M42 24.44C42 13.46 33.48 6 24 6C14.62 6 6 13.3 6 24.56C4.8 25.24 4 26.52 4 28V32C4 34.2 5.8 36 8 36H10V23.8C10 16.06 16.26 9.8 24 9.8C31.74 9.8 38 16.06 38 23.8V38H22V42H38C40.2 42 42 40.2 42 38V35.56C43.18 34.94 44 33.72 44 32.28V27.68C44 26.28 43.18 25.06 42 24.44Z" fill="#ED8A0A"/>
<path d="M18 28C19.1046 28 20 27.1046 20 26C20 24.8954 19.1046 24 18 24C16.8954 24 16 24.8954 16 26C16 27.1046 16.8954 28 18 28Z" fill="#ED8A0A"/>
<path d="M30 28C31.1046 28 32 27.1046 32 26C32 24.8954 31.1046 24 30 24C28.8954 24 28 24.8954 28 26C28 27.1046 28.8954 28 30 28Z" fill="#ED8A0A"/>
<path d="M36.0004 22.06C35.5235 19.2483 34.0672 16.6959 31.8893 14.8548C29.7114 13.0136 26.9523 12.0023 24.1004 12C18.0404 12 11.5204 17.02 12.0404 24.9C14.5067 23.8908 16.6849 22.287 18.3809 20.2316C20.0769 18.1762 21.2379 15.733 21.7604 13.12C24.3804 18.38 29.7604 22 36.0004 22.06Z" fill="#ED8A0A"/>
</svg>
