<svg width="48" height="48" viewBox="0 0 48 48" fill="none" xmlns="http://www.w3.org/2000/svg">
<path d="M45 22.5H35.895C35.5582 19.8607 34.3547 17.408 32.4734 15.5266C30.592 13.6453 28.1393 12.4418 25.5 12.105V3H22.5V12.105C19.8607 12.4418 17.408 13.6453 15.5266 15.5266C13.6453 17.408 12.4418 19.8607 12.105 22.5H3V25.5H12.105C12.4418 28.1393 13.6453 30.592 15.5266 32.4734C17.408 34.3547 19.8607 35.5582 22.5 35.895V45H25.5V35.895C28.1393 35.5582 30.592 34.3547 32.4734 32.4734C34.3547 30.592 35.5582 28.1393 35.895 25.5H45V22.5ZM24 33C22.22 33 20.4799 32.4722 18.9999 31.4832C17.5198 30.4943 16.3663 29.0887 15.6851 27.4442C15.0039 25.7996 14.8257 23.99 15.1729 22.2442C15.5202 20.4984 16.3774 18.8947 17.636 17.636C18.8947 16.3774 20.4984 15.5202 22.2442 15.1729C23.99 14.8257 25.7996 15.0039 27.4442 15.6851C29.0887 16.3663 30.4943 17.5198 31.4832 18.9999C32.4722 20.4799 33 22.22 33 24C32.9972 26.3861 32.0481 28.6737 30.3609 30.3609C28.6737 32.0481 26.3861 32.9972 24 33Z" fill="#ED8A0A"/>
</svg>
