<svg width="21" height="19" viewBox="0 0 21 19" fill="none" xmlns="http://www.w3.org/2000/svg">
<path d="M14.29 6.70994C14.383 6.80367 14.4936 6.87806 14.6154 6.92883C14.7373 6.9796 14.868 7.00574 15 7.00574C15.132 7.00574 15.2627 6.9796 15.3846 6.92883C15.5064 6.87806 15.617 6.80367 15.71 6.70994L19.71 2.70994C19.8983 2.52164 20.0041 2.26624 20.0041 1.99994C20.0041 1.73364 19.8983 1.47825 19.71 1.28994C19.5217 1.10164 19.2663 0.99585 19 0.99585C18.7337 0.99585 18.4783 1.10164 18.29 1.28994L15 4.58994L13.71 3.28994C13.6168 3.1967 13.5061 3.12274 13.3842 3.07228C13.2624 3.02182 13.1319 2.99585 13 2.99585C12.7337 2.99585 12.4783 3.10164 12.29 3.28994C12.1968 3.38318 12.1228 3.49387 12.0723 3.61569C12.0219 3.73751 11.9959 3.86808 11.9959 3.99994C11.9959 4.26624 12.1017 4.52164 12.29 4.70994L14.29 6.70994ZM19 5.99994C18.7348 5.99994 18.4804 6.1053 18.2929 6.29283C18.1054 6.48037 18 6.73472 18 6.99994V15.9999C18 16.2652 17.8946 16.5195 17.7071 16.707C17.5196 16.8946 17.2652 16.9999 17 16.9999H3C2.73478 16.9999 2.48043 16.8946 2.29289 16.707C2.10536 16.5195 2 16.2652 2 15.9999V6.40994L7.88 12.2999C8.44125 12.8566 9.19951 13.1693 9.99 13.1699C10.8004 13.1658 11.5764 12.8424 12.15 12.2699L13.87 10.5499C14.0583 10.3616 14.1641 10.1062 14.1641 9.83994C14.1641 9.57364 14.0583 9.31825 13.87 9.12994C13.6817 8.94164 13.4263 8.83585 13.16 8.83585C12.8937 8.83585 12.6383 8.94164 12.45 9.12994L10.7 10.8799C10.5131 11.0632 10.2618 11.1658 10 11.1658C9.73825 11.1658 9.48693 11.0632 9.3 10.8799L3.41 4.99994H9C9.26522 4.99994 9.51957 4.89458 9.70711 4.70705C9.89464 4.51951 10 4.26516 10 3.99994C10 3.73472 9.89464 3.48037 9.70711 3.29283C9.51957 3.1053 9.26522 2.99994 9 2.99994H3C2.20435 2.99994 1.44129 3.31601 0.87868 3.87862C0.316071 4.44123 0 5.20429 0 5.99994V15.9999C0 16.7956 0.316071 17.5587 0.87868 18.1213C1.44129 18.6839 2.20435 18.9999 3 18.9999H17C17.7956 18.9999 18.5587 18.6839 19.1213 18.1213C19.6839 17.5587 20 16.7956 20 15.9999V6.99994C20 6.73472 19.8946 6.48037 19.7071 6.29283C19.5196 6.1053 19.2652 5.99994 19 5.99994Z" fill="white"/>
</svg>
