<svg width="54" height="75" viewBox="0 0 54 75" fill="none" xmlns="http://www.w3.org/2000/svg">
<path d="M26.7123 75L25.0685 73.1507C24.0411 72.1233 0 43.7671 0 26.7123C0 11.9178 11.9178 0 26.7123 0C41.5068 0 53.4247 11.9178 53.4247 26.7123C53.4247 43.7671 29.3836 72.1233 28.3562 73.3562L26.7123 75ZM26.7123 4.10959C14.1781 4.10959 4.10959 14.1781 4.10959 26.7123C4.10959 39.863 21.3699 62.0548 26.7123 68.6301C32.0548 62.0548 49.3151 39.863 49.3151 26.7123C49.3151 14.1781 39.2466 4.10959 26.7123 4.10959Z" fill="#ED8A0A"/>
<path d="M26.7123 36.9863C20.9589 36.9863 16.4384 32.4658 16.4384 26.7123C16.4384 20.9589 20.9589 16.4384 26.7123 16.4384C32.4658 16.4384 36.9863 20.9589 36.9863 26.7123C36.9863 32.4658 32.4658 36.9863 26.7123 36.9863ZM26.7123 20.5479C23.2192 20.5479 20.5479 23.2192 20.5479 26.7123C20.5479 30.2055 23.2192 32.8767 26.7123 32.8767C30.2055 32.8767 32.8767 30.2055 32.8767 26.7123C32.8767 23.2192 30.2055 20.5479 26.7123 20.5479Z" fill="#ED8A0A"/>
</svg>
