<svg width="74" height="74" viewBox="0 0 74 74" fill="none" xmlns="http://www.w3.org/2000/svg">
<path d="M46.1562 4.10802C46.262 3.71239 46.5206 3.37498 46.8752 3.17002C47.2297 2.96505 47.6512 2.90931 48.0468 3.01504C53.5448 4.49351 58.5578 7.39074 62.5835 11.4165C66.6093 15.4423 69.5065 20.4552 70.985 25.9532C71.0402 26.15 71.0558 26.3558 71.0309 26.5587C71.006 26.7615 70.941 26.9574 70.8398 27.135C70.7386 27.3126 70.6031 27.4683 70.4413 27.5931C70.2794 27.718 70.0944 27.8094 69.897 27.8622C69.6995 27.915 69.4935 27.9281 69.291 27.9007C69.0884 27.8733 68.8933 27.8059 68.717 27.7025C68.5407 27.5991 68.3867 27.4618 68.2638 27.2984C68.141 27.135 68.0518 26.9489 68.0014 26.7508C66.6639 21.7768 64.0428 17.2415 60.4007 13.5993C56.7586 9.95722 52.2233 7.33611 47.2492 5.99862C46.8536 5.89282 46.5162 5.6342 46.3112 5.27966C46.1062 4.92511 46.0505 4.50366 46.1562 4.10802ZM44.051 17.9345C46.9307 18.7089 49.5563 20.2264 51.6649 22.335C53.7734 24.4437 55.2909 27.0693 56.0652 29.949C56.1161 30.1466 56.2056 30.3321 56.3286 30.4949C56.4516 30.6577 56.6056 30.7944 56.7817 30.8974C56.9579 31.0003 57.1527 31.0672 57.3549 31.0944C57.5571 31.1216 57.7626 31.1085 57.9597 31.0558C58.1568 31.003 58.3415 30.9118 58.5031 30.7873C58.6647 30.6628 58.8001 30.5075 58.9013 30.3304C59.0026 30.1533 59.0678 29.9579 59.0931 29.7555C59.1184 29.5531 59.1033 29.3476 59.0488 29.151C58.1335 25.7474 56.34 22.6441 53.8477 20.1519C51.3555 17.6597 48.2522 15.8661 44.8486 14.9509C44.6518 14.8957 44.446 14.8801 44.2431 14.905C44.0403 14.9299 43.8444 14.9949 43.6668 15.0961C43.4892 15.1973 43.3335 15.3328 43.2087 15.4946C43.0838 15.6564 42.9924 15.8415 42.9396 16.0389C42.8868 16.2364 42.8737 16.4424 42.9011 16.6449C42.9285 16.8475 42.9959 17.0425 43.0993 17.2189C43.2027 17.3952 43.34 17.5492 43.5034 17.6721C43.6668 17.7949 43.8529 17.8841 44.051 17.9345ZM73.967 56.4634C73.344 61.307 70.979 65.7582 67.3138 68.9854C63.6486 72.2126 58.9338 73.9952 54.0503 74C24.247 74 0 49.7531 0 19.9498C0.00480364 15.0664 1.78716 10.3518 5.01415 6.6866C8.24113 3.02139 12.692 0.65627 17.5355 0.0330155C18.5305 -0.0863032 19.5374 0.11969 20.4056 0.620191C21.2738 1.12069 21.9567 1.8888 22.3521 2.80965L30.1087 20.9072C30.4105 21.6094 30.5335 22.3753 30.4668 23.1366C30.4001 23.898 30.1458 24.6309 29.7265 25.2698L23.3038 35.0838C23.1584 35.3016 23.0717 35.5532 23.0521 35.8142C23.0324 36.0753 23.0806 36.337 23.1918 36.5741C26.2483 42.8093 31.3039 47.8419 37.553 50.87C37.7914 50.9805 38.0544 51.0272 38.3162 51.0057C38.5781 50.9842 38.8299 50.8951 39.0471 50.7472L48.7128 44.3017C49.3535 43.873 50.0913 43.6114 50.859 43.5409C51.6267 43.4703 52.3998 43.5931 53.1079 43.8979L71.1908 51.6479C72.1114 52.0433 72.8793 52.7261 73.3796 53.5942C73.88 54.4623 74.0863 55.4686 73.967 56.4634ZM69.9735 54.4863L51.8914 46.7367C51.6552 46.6351 51.3975 46.5942 51.1415 46.6177C50.8856 46.6411 50.6395 46.7282 50.4258 46.871L40.7605 53.3165C40.0958 53.7615 39.3271 54.0263 38.5294 54.085C37.7317 54.1436 36.9324 53.9942 36.2098 53.6512C29.3376 50.3207 23.7779 44.7859 20.4163 37.9288C20.0714 37.2105 19.9181 36.4156 19.9712 35.6205C20.0244 34.8254 20.2823 34.0576 20.7198 33.3917L27.1425 23.5788C27.2823 23.3658 27.367 23.1214 27.3893 22.8675C27.4115 22.6137 27.3705 22.3583 27.2699 22.1241L19.5133 4.02656C19.3958 3.74981 19.2002 3.51337 18.9503 3.34624C18.7003 3.17911 18.4071 3.08856 18.1065 3.0857C18.0451 3.08563 17.9839 3.0895 17.9231 3.09728C13.8252 3.62481 10.0595 5.6262 7.3295 8.72754C4.59953 11.8289 3.09201 15.818 3.08859 19.9498C3.08859 48.0501 25.9499 70.9114 54.0503 70.9114C58.182 70.9079 62.1711 69.4003 65.2724 66.6702C68.3736 63.9402 70.3749 60.1745 70.9024 56.0765C70.94 55.7468 70.8699 55.4137 70.7025 55.1271C70.535 54.8405 70.2793 54.6154 69.9735 54.4863Z" fill="#ED8A0A"/>
</svg>
