<svg width="319" height="333" viewBox="0 0 319 333" fill="none" xmlns="http://www.w3.org/2000/svg">
<path d="M246.871 321.707C231.15 333.018 210.775 333.586 191.081 332.196C188.331 332.002 185.6 331.775 182.895 331.53C182.879 331.525 182.857 331.527 182.841 331.523C182.711 331.51 182.58 331.498 182.456 331.491C181.898 331.438 181.339 331.386 180.786 331.334L180.917 331.583L181.327 332.355C181.179 332.097 181.032 331.844 180.885 331.585C180.841 331.507 180.793 331.43 180.75 331.352C175.648 322.486 170.588 313.294 169.297 303.169C167.963 292.661 171.712 280.762 180.973 275.596C182.188 274.921 183.474 274.383 184.808 273.993C185.362 273.824 185.923 273.688 186.491 273.567C189.964 272.797 193.58 272.965 196.967 274.053C200.354 275.141 203.39 277.11 205.762 279.759C208.135 282.407 209.758 285.638 210.465 289.12C211.172 292.603 210.938 296.21 209.786 299.572C217.638 291.531 216.173 278.488 213.464 267.586C210.751 256.685 207.465 244.555 212.985 234.763C216.053 229.313 221.449 225.932 227.504 224.57C227.69 224.53 227.875 224.49 228.061 224.455C235.276 222.996 242.776 224.308 249.064 228.13C260.642 235.417 266.588 249.232 268.518 262.765C271.628 284.542 264.746 308.845 246.871 321.707Z" fill="#FFF9D3"/>
<path d="M241.796 286.797C241.339 291.601 240.184 296.312 238.366 300.783C236.691 304.739 234.432 308.422 231.666 311.712C225.915 318.434 218.632 323.678 210.429 327.004C204.225 329.542 197.724 331.286 191.081 332.196C188.331 332.002 185.601 331.775 182.896 331.53C182.879 331.525 182.858 331.527 182.841 331.523C182.711 331.51 182.581 331.498 182.456 331.491C181.898 331.438 181.339 331.386 180.786 331.334L180.917 331.583L181.327 332.355C181.18 332.097 181.032 331.844 180.885 331.585C180.842 331.507 180.793 331.43 180.75 331.352C185.73 326.397 189.448 320.322 191.593 313.637C193.738 306.951 194.247 299.849 193.077 292.927C191.853 286.053 189.02 279.565 184.809 273.992C185.362 273.824 185.924 273.688 186.492 273.567C188.092 275.753 189.496 278.075 190.687 280.507C194.961 289.181 196.324 298.999 194.575 308.507C192.95 317.111 188.9 325.073 182.901 331.459C183.427 331.422 183.957 331.379 184.476 331.332C194.307 330.5 204.117 328.39 213.034 324.067C220.656 320.461 227.273 315.039 232.302 308.278C237.702 300.84 240.082 291.894 240.49 282.801C240.805 273.005 239.777 263.211 237.435 253.693C235.163 243.988 231.711 234.597 227.155 225.729C227.053 225.528 227.033 225.296 227.098 225.08C227.163 224.864 227.308 224.681 227.504 224.57C227.668 224.46 227.868 224.418 228.062 224.455C228.156 224.48 228.244 224.526 228.319 224.59C228.393 224.654 228.452 224.733 228.492 224.823C229.054 225.918 229.605 227.015 230.136 228.123C234.555 237.356 237.808 247.101 239.821 257.135C241.775 266.815 242.819 276.94 241.796 286.797Z" fill="white"/>
<path d="M68.4619 156.356C68.7115 155.16 69.2206 154.034 69.9533 153.056C70.686 152.078 71.6244 151.273 72.7025 150.696C73.7806 150.12 74.9721 149.787 76.1932 149.72C77.4142 149.653 78.635 149.855 79.7697 150.31L99.2836 127.917L103.428 142.778L84.2622 161.764C83.3698 163.617 81.8278 165.079 79.9284 165.872C78.029 166.665 75.9042 166.735 73.9566 166.068C72.009 165.402 70.3739 164.045 69.3612 162.255C68.3485 160.465 68.0285 158.366 68.4619 156.356Z" fill="#EDB770"/>
<path d="M175.561 51.2726C186.845 51.2726 195.992 42.1377 195.992 30.8693C195.992 19.601 186.845 10.4661 175.561 10.4661C164.278 10.4661 155.131 19.601 155.131 30.8693C155.131 42.1377 164.278 51.2726 175.561 51.2726Z" fill="#EDB770"/>
<path d="M151.559 311.711L141.362 311.71L136.51 272.428L151.562 272.428L151.559 311.711Z" fill="#EDB770"/>
<path d="M154.16 321.584L121.277 321.582V321.167C121.277 319.488 121.608 317.826 122.252 316.276C122.895 314.725 123.837 313.316 125.026 312.129C126.214 310.942 127.625 310.001 129.178 309.358C130.731 308.716 132.395 308.385 134.076 308.385H134.077L154.16 308.386L154.16 321.584Z" fill="#6D727C"/>
<path d="M182.336 322.51L172.139 322.51L170.727 284.166L182.339 283.228L182.336 322.51Z" fill="#EDB770"/>
<path d="M184.937 332.383L152.055 332.382V331.966C152.055 330.288 152.386 328.626 153.029 327.075C153.672 325.524 154.615 324.115 155.803 322.928C156.992 321.741 158.403 320.8 159.956 320.158C161.508 319.515 163.173 319.185 164.853 319.185H164.854L184.938 319.186L184.937 332.383Z" fill="#6D727C"/>
<path d="M179.438 315.342L171.496 314.408C170.596 314.3 169.765 313.87 169.157 313.197C168.549 312.525 168.206 311.655 168.191 310.749L166.703 207.459C166.698 207.167 166.591 206.885 166.4 206.664C166.209 206.443 165.946 206.295 165.657 206.248C165.368 206.2 165.072 206.256 164.82 206.405C164.568 206.554 164.377 206.786 164.279 207.062L153.261 238.13L154.049 296.364C154.062 297.326 153.704 298.255 153.049 298.959C152.394 299.664 151.492 300.089 150.531 300.146L140.164 300.586C139.215 300.64 138.282 300.334 137.55 299.729C136.818 299.124 136.342 298.266 136.217 297.326L130.802 231.449L130.799 231.408L139.015 162.609L200.722 167.067L183.592 312.068C183.484 312.976 183.046 313.813 182.362 314.421C181.677 315.029 180.793 315.366 179.877 315.368C179.73 315.368 179.584 315.359 179.438 315.342Z" fill="#180E01"/>
<path d="M139.277 168.707C138.723 168.412 138.253 167.982 137.911 167.456C137.568 166.931 137.364 166.327 137.318 165.702C137.318 165.702 142.867 131.24 144.901 130.594L140.452 93.7403C139.919 89.2454 140.29 84.6895 141.545 80.34C142.799 75.9904 144.91 71.935 147.756 68.4116C150.495 64.9933 153.9 62.165 157.765 60.0972C161.63 58.0295 165.874 56.7652 170.241 56.3808C170.863 56.3248 171.481 56.2821 172.096 56.2526C177.361 55.971 182.616 56.9631 187.414 59.1443C192.213 61.3256 196.413 64.6317 199.658 68.7815C203.024 72.9669 205.327 77.9023 206.373 83.1679C207.419 88.4335 207.175 93.8733 205.663 99.0247L203.168 107.697V168.303C203.165 168.894 203.024 169.477 202.755 170.004C202.486 170.531 202.097 170.988 201.619 171.338C193.849 177.032 185.069 179.046 176.535 179.046C160.389 179.046 145.128 171.836 139.277 168.707Z" fill="#ED8A0A"/>
<path d="M91.3729 157.617L80.6405 149.602C80.2194 149.288 79.8694 148.888 79.6132 148.43C79.357 147.971 79.2004 147.464 79.1536 146.941C79.1067 146.418 79.1707 145.892 79.3414 145.395C79.512 144.898 79.7855 144.443 80.144 144.059L144.08 75.5467C146.132 73.3666 148.9 71.9937 151.879 71.6773C154.859 71.361 157.853 72.1221 160.318 73.8226L160.319 73.8227C161.821 74.8686 163.074 76.2324 163.988 77.817C164.902 79.4015 165.456 81.168 165.609 82.9904C165.761 84.8129 165.51 86.6466 164.873 88.361C164.235 90.0754 163.227 91.6284 161.92 92.9095L96.2363 157.291C95.6592 157.863 94.9108 158.229 94.1053 158.336C93.2998 158.442 92.4816 158.282 91.7758 157.88C91.6361 157.801 91.5016 157.713 91.3729 157.617Z" fill="#ED8A0A"/>
<path d="M173.514 148.546C173.983 147.418 174.694 146.406 175.597 145.583C176.5 144.759 177.573 144.143 178.74 143.778C179.907 143.413 181.14 143.308 182.352 143.471C183.564 143.633 184.725 144.059 185.754 144.719L209.117 126.365L210.406 141.737L188.023 156.809C186.799 158.463 185.011 159.611 182.996 160.035C180.982 160.46 178.881 160.132 177.093 159.113C175.305 158.095 173.953 156.456 173.293 154.509C172.633 152.561 172.712 150.439 173.514 148.546Z" fill="#EDB770"/>
<path d="M194.427 155.711C193.808 155.519 193.251 155.169 192.81 154.695C192.369 154.222 192.059 153.641 191.912 153.012L189.552 143.113C189.379 142.41 189.417 141.672 189.661 140.991C189.905 140.309 190.345 139.715 190.925 139.281L206.803 122.131L183.447 86.1649C181.679 83.991 180.683 81.2934 180.613 78.4939C180.544 75.6944 181.405 72.9507 183.063 70.692C184.384 68.8923 186.158 67.4733 188.206 66.5789C190.253 65.6845 192.501 65.3464 194.721 65.5989C196.942 65.8514 199.056 66.6855 200.85 68.0167C202.643 69.3479 204.053 71.1289 204.935 73.1793L226.649 115.388C228.808 119.582 229.346 124.422 228.162 128.986C226.977 133.551 224.153 137.521 220.227 140.139L198.036 154.943C197.357 155.55 196.477 155.886 195.565 155.887C195.179 155.887 194.795 155.827 194.427 155.711Z" fill="#ED8A0A"/>
<path d="M190.7 49.1095C190.219 49.398 189.677 49.572 189.118 49.618C188.558 49.664 187.996 49.5808 187.473 49.3748C186.951 49.1688 186.483 48.8456 186.106 48.4301C185.729 48.0146 185.453 47.518 185.299 46.9787L185.286 46.9278C184.87 45.2302 185.199 43.4535 185.306 41.709C185.414 39.9646 185.232 38.0498 184.036 36.774C181.807 34.3958 177.869 35.6839 174.66 35.0967C172.781 34.6881 171.114 33.6095 169.973 32.0625C168.832 30.5156 168.295 28.6064 168.461 26.6923C168.505 26.3296 168.575 25.9664 168.653 25.6033C168.848 24.6834 168.828 23.7307 168.593 22.8201C168.358 21.9095 167.914 21.0657 167.298 20.355C166.681 19.6442 165.908 19.0859 165.039 18.7238C164.17 18.3618 163.228 18.2058 162.289 18.2682C159.05 18.4705 155.559 19.4694 152.865 17.0874C151.878 16.1474 151.189 14.9378 150.885 13.6095C150.582 12.2811 150.676 10.8928 151.158 9.61791C152.664 5.19793 156.978 2.86519 161.251 1.57263C166.537 0.0167186 172.104 -0.343305 177.547 0.518749C182.99 1.3808 188.172 3.44325 192.716 6.55617C195.43 8.44496 197.968 10.8229 199.137 13.9133C200.306 17.0037 199.771 20.9134 197.183 22.9714C199.209 25.0904 200.641 27.7039 201.337 30.55C202.033 33.396 201.967 36.3746 201.147 39.1875C199.886 43.3245 193.781 47.317 190.7 49.1095Z" fill="#180E01"/>
<path d="M318.999 332.169C318.999 332.389 318.911 332.6 318.755 332.756C318.599 332.912 318.388 332.999 318.168 333H1.24393C1.02332 333 0.811753 332.912 0.655756 332.757C0.499759 332.601 0.412109 332.39 0.412109 332.169C0.412109 331.949 0.499759 331.738 0.655756 331.582C0.811753 331.426 1.02332 331.339 1.24393 331.339H318.168C318.388 331.339 318.599 331.427 318.755 331.583C318.911 331.738 318.999 331.949 318.999 332.169Z" fill="#6D727C"/>
</svg>
