<svg width="94" height="74" viewBox="0 0 94 74" fill="none" xmlns="http://www.w3.org/2000/svg">
<path d="M14.8 0H78.9333C82.8585 0 86.623 1.55928 89.3985 4.33482C92.1741 7.11036 93.7333 10.8748 93.7333 14.8V59.2C93.7333 63.1252 92.1741 66.8896 89.3985 69.6652C86.623 72.4407 82.8585 74 78.9333 74H14.8C10.8748 74 7.11036 72.4407 4.33482 69.6652C1.55928 66.8896 0 63.1252 0 59.2V14.8C0 10.8748 1.55928 7.11036 4.33482 4.33482C7.11036 1.55928 10.8748 0 14.8 0ZM14.8 4.93333C12.3925 4.93333 10.1824 5.79667 8.47053 7.23227L46.8667 32.1653L85.2628 7.23227C83.4896 5.74444 81.2481 4.9303 78.9333 4.93333H14.8ZM46.8667 38.0459L5.5944 11.248C5.15675 12.3811 4.93262 13.5854 4.93333 14.8V59.2C4.93333 61.8168 5.97285 64.3264 7.82321 66.1768C9.67357 68.0271 12.1832 69.0667 14.8 69.0667H78.9333C81.5501 69.0667 84.0598 68.0271 85.9101 66.1768C87.7605 64.3264 88.8 61.8168 88.8 59.2V14.8C88.8 13.5469 88.5681 12.3481 88.1389 11.248L46.8667 38.0409V38.0459Z" fill="#ED8A0A"/>
</svg>
