<svg width="158" height="38" viewBox="0 0 158 38" fill="none" xmlns="http://www.w3.org/2000/svg">
<path d="M56.593 28.33C55.229 28.33 54.14 28.099 53.326 27.637C52.512 27.153 51.896 26.636 51.478 26.086V33.379C51.478 33.621 51.39 33.83 51.214 34.006C51.038 34.182 50.829 34.27 50.587 34.27H49.366C49.124 34.27 48.915 34.182 48.739 34.006C48.563 33.83 48.475 33.621 48.475 33.379V11.731C48.475 11.489 48.563 11.28 48.739 11.104C48.915 10.928 49.124 10.84 49.366 10.84H50.587C50.829 10.84 51.038 10.928 51.214 11.104C51.39 11.28 51.478 11.489 51.478 11.731V12.754C51.918 12.16 52.545 11.643 53.359 11.203C54.173 10.741 55.251 10.51 56.593 10.51C57.627 10.51 58.584 10.697 59.464 11.071C60.366 11.423 61.147 11.94 61.807 12.622C62.467 13.304 62.995 14.129 63.391 15.097C63.787 16.065 64.018 17.154 64.084 18.364C64.106 18.694 64.117 19.057 64.117 19.453C64.117 19.827 64.106 20.179 64.084 20.509C64.018 21.719 63.787 22.808 63.391 23.776C62.995 24.744 62.467 25.569 61.807 26.251C61.147 26.911 60.366 27.428 59.464 27.802C58.584 28.154 57.627 28.33 56.593 28.33ZM51.478 18.001C51.456 18.331 51.445 18.771 51.445 19.321C51.445 19.849 51.456 20.278 51.478 20.608C51.544 22.17 52.006 23.38 52.864 24.238C53.744 25.074 54.877 25.492 56.263 25.492C57.715 25.492 58.859 25.03 59.695 24.106C60.531 23.182 60.993 21.928 61.081 20.344C61.103 19.728 61.103 19.112 61.081 18.496C60.993 16.912 60.531 15.658 59.695 14.734C58.859 13.81 57.715 13.348 56.263 13.348C54.899 13.348 53.777 13.766 52.897 14.602C52.017 15.438 51.544 16.571 51.478 18.001ZM71.2007 27.109C71.2007 27.351 71.1127 27.56 70.9367 27.736C70.7607 27.912 70.5517 28 70.3097 28H69.0887C68.8467 28 68.6377 27.912 68.4617 27.736C68.2857 27.56 68.1977 27.351 68.1977 27.109V11.731C68.1977 11.489 68.2857 11.28 68.4617 11.104C68.6377 10.928 68.8467 10.84 69.0887 10.84H70.3097C70.5517 10.84 70.7607 10.928 70.9367 11.104C71.1127 11.28 71.2007 11.489 71.2007 11.731V27.109ZM71.5307 7.342C71.5307 7.584 71.4427 7.793 71.2667 7.969C71.0907 8.145 70.8817 8.233 70.6397 8.233H68.7587C68.5167 8.233 68.3077 8.145 68.1317 7.969C67.9557 7.793 67.8677 7.584 67.8677 7.342V5.461C67.8677 5.219 67.9557 5.01 68.1317 4.834C68.3077 4.658 68.5167 4.57 68.7587 4.57H70.6397C70.8817 4.57 71.0907 4.658 71.2667 4.834C71.4427 5.01 71.5307 5.219 71.5307 5.461V7.342ZM82.8236 10.51C84.1876 10.51 85.2766 10.752 86.0906 11.236C86.9046 11.698 87.5206 12.204 87.9386 12.754V5.461C87.9386 5.219 88.0266 5.01 88.2026 4.834C88.3786 4.658 88.5876 4.57 88.8296 4.57H90.0506C90.2926 4.57 90.5016 4.658 90.6776 4.834C90.8536 5.01 90.9416 5.219 90.9416 5.461V27.109C90.9416 27.351 90.8536 27.56 90.6776 27.736C90.5016 27.912 90.2926 28 90.0506 28H88.8296C88.5876 28 88.3786 27.912 88.2026 27.736C88.0266 27.56 87.9386 27.351 87.9386 27.109V26.086C87.4986 26.68 86.8716 27.208 86.0576 27.67C85.2436 28.11 84.1656 28.33 82.8236 28.33C81.7896 28.33 80.8216 28.154 79.9196 27.802C79.0396 27.428 78.2696 26.9 77.6096 26.218C76.9496 25.536 76.4216 24.711 76.0256 23.743C75.6296 22.775 75.3986 21.686 75.3326 20.476C75.3106 20.146 75.2996 19.794 75.2996 19.42C75.2996 19.024 75.3106 18.661 75.3326 18.331C75.3986 17.121 75.6296 16.032 76.0256 15.064C76.4216 14.096 76.9496 13.282 77.6096 12.622C78.2696 11.94 79.0396 11.423 79.9196 11.071C80.8216 10.697 81.7896 10.51 82.8236 10.51ZM87.9386 20.839C87.9606 20.509 87.9716 20.08 87.9716 19.552C87.9716 19.002 87.9606 18.562 87.9386 18.232C87.8726 16.67 87.3996 15.471 86.5196 14.635C85.6616 13.777 84.5396 13.348 83.1536 13.348C81.7016 13.348 80.5576 13.81 79.7216 14.734C78.8856 15.658 78.4236 16.912 78.3356 18.496C78.3136 19.112 78.3136 19.728 78.3356 20.344C78.4236 21.928 78.8856 23.182 79.7216 24.106C80.5576 25.03 81.7016 25.492 83.1536 25.492C84.5176 25.492 85.6396 25.074 86.5196 24.238C87.3996 23.402 87.8726 22.269 87.9386 20.839ZM98.8833 20.74V27.109C98.8833 27.351 98.7953 27.56 98.6193 27.736C98.4433 27.912 98.2343 28 97.9923 28H96.7713C96.5293 28 96.3203 27.912 96.1443 27.736C95.9683 27.56 95.8803 27.351 95.8803 27.109V5.461C95.8803 5.219 95.9683 5.01 96.1443 4.834C96.3203 4.658 96.5293 4.57 96.7713 4.57H97.9923C98.2343 4.57 98.4433 4.658 98.6193 4.834C98.7953 5.01 98.8833 5.219 98.8833 5.461V16.384L105.318 11.401C105.45 11.291 105.615 11.17 105.813 11.038C106.033 10.906 106.297 10.84 106.605 10.84H108.255C108.475 10.84 108.662 10.917 108.816 11.071C108.97 11.225 109.047 11.412 109.047 11.632C109.047 11.742 109.025 11.852 108.981 11.962C108.959 12.05 108.86 12.16 108.684 12.292L100.731 18.496L109.509 26.581C109.641 26.713 109.729 26.823 109.773 26.911C109.817 26.999 109.839 27.098 109.839 27.208C109.839 27.428 109.762 27.615 109.608 27.769C109.454 27.923 109.267 28 109.047 28H107.496C107.166 28 106.88 27.934 106.638 27.802C106.418 27.67 106.253 27.549 106.143 27.439L98.8833 20.74ZM111.256 23.677C111.256 22.797 111.432 22.027 111.784 21.367C112.136 20.707 112.62 20.146 113.236 19.684C113.852 19.222 114.567 18.848 115.381 18.562C116.217 18.276 117.097 18.056 118.021 17.902L122.674 17.143V16.714C122.674 15.592 122.3 14.756 121.552 14.206C120.826 13.634 119.913 13.348 118.813 13.348C117.845 13.348 117.108 13.524 116.602 13.876C116.118 14.228 115.7 14.646 115.348 15.13C115.216 15.306 115.073 15.427 114.919 15.493C114.765 15.559 114.556 15.592 114.292 15.592H113.302C113.06 15.592 112.84 15.504 112.642 15.328C112.466 15.152 112.389 14.943 112.411 14.701C112.455 14.217 112.642 13.722 112.972 13.216C113.324 12.71 113.786 12.259 114.358 11.863C114.952 11.467 115.623 11.148 116.371 10.906C117.141 10.642 117.955 10.51 118.813 10.51C119.803 10.51 120.716 10.653 121.552 10.939C122.41 11.225 123.136 11.643 123.73 12.193C124.346 12.743 124.819 13.425 125.149 14.239C125.501 15.053 125.677 15.988 125.677 17.044V27.109C125.677 27.351 125.589 27.56 125.413 27.736C125.237 27.912 125.028 28 124.786 28H123.565C123.323 28 123.114 27.912 122.938 27.736C122.762 27.56 122.674 27.351 122.674 27.109V25.756C122.476 26.174 122.168 26.548 121.75 26.878C121.332 27.186 120.848 27.45 120.298 27.67C119.77 27.89 119.209 28.055 118.615 28.165C118.043 28.275 117.504 28.33 116.998 28.33C116.14 28.33 115.348 28.209 114.622 27.967C113.918 27.725 113.313 27.406 112.807 27.01C112.323 26.592 111.938 26.097 111.652 25.525C111.388 24.953 111.256 24.337 111.256 23.677ZM117.328 25.492C118.12 25.492 118.846 25.371 119.506 25.129C120.166 24.887 120.727 24.557 121.189 24.139C121.673 23.699 122.036 23.182 122.278 22.588C122.542 21.994 122.674 21.334 122.674 20.608V19.783L118.78 20.41C117.394 20.63 116.294 20.982 115.48 21.466C114.666 21.95 114.259 22.577 114.259 23.347C114.259 23.589 114.314 23.831 114.424 24.073C114.534 24.315 114.71 24.546 114.952 24.766C115.194 24.986 115.502 25.162 115.876 25.294C116.272 25.426 116.756 25.492 117.328 25.492ZM140.26 23.248C140.26 22.83 140.139 22.489 139.897 22.225C139.677 21.939 139.336 21.697 138.874 21.499C138.412 21.301 137.818 21.114 137.092 20.938C136.388 20.762 135.563 20.575 134.617 20.377C132.835 20.003 131.581 19.387 130.855 18.529C130.151 17.649 129.799 16.626 129.799 15.46C129.799 14.8 129.931 14.173 130.195 13.579C130.459 12.985 130.855 12.457 131.383 11.995C131.911 11.533 132.571 11.17 133.363 10.906C134.177 10.642 135.123 10.51 136.201 10.51C137.279 10.51 138.214 10.631 139.006 10.873C139.82 11.115 140.502 11.423 141.052 11.797C141.602 12.171 142.02 12.578 142.306 13.018C142.592 13.436 142.746 13.843 142.768 14.239C142.79 14.481 142.702 14.69 142.504 14.866C142.328 15.042 142.119 15.13 141.877 15.13H140.788C140.656 15.13 140.491 15.108 140.293 15.064C140.117 14.998 139.952 14.866 139.798 14.668C139.512 14.294 139.083 13.986 138.511 13.744C137.961 13.48 137.191 13.348 136.201 13.348C135.189 13.348 134.364 13.535 133.726 13.909C133.11 14.283 132.802 14.8 132.802 15.46C132.802 15.878 132.89 16.219 133.066 16.483C133.242 16.725 133.528 16.945 133.924 17.143C134.32 17.319 134.837 17.484 135.475 17.638C136.135 17.792 136.949 17.979 137.917 18.199C138.929 18.419 139.776 18.705 140.458 19.057C141.14 19.387 141.69 19.772 142.108 20.212C142.526 20.63 142.823 21.103 142.999 21.631C143.175 22.137 143.263 22.676 143.263 23.248C143.263 23.908 143.098 24.546 142.768 25.162C142.46 25.778 142.009 26.317 141.415 26.779C140.821 27.241 140.095 27.615 139.237 27.901C138.401 28.187 137.444 28.33 136.366 28.33C135.288 28.33 134.331 28.198 133.495 27.934C132.659 27.67 131.944 27.351 131.35 26.977C130.756 26.581 130.294 26.163 129.964 25.723C129.656 25.261 129.491 24.832 129.469 24.436C129.447 24.194 129.524 23.985 129.7 23.809C129.876 23.633 130.096 23.545 130.36 23.545H131.548C131.68 23.545 131.834 23.567 132.01 23.611C132.186 23.633 132.351 23.754 132.505 23.974C132.857 24.458 133.341 24.832 133.957 25.096C134.573 25.36 135.376 25.492 136.366 25.492C136.85 25.492 137.323 25.437 137.785 25.327C138.269 25.217 138.687 25.063 139.039 24.865C139.413 24.667 139.71 24.436 139.93 24.172C140.15 23.886 140.26 23.578 140.26 23.248ZM151.673 22.225C151.673 22.643 151.706 23.039 151.772 23.413C151.86 23.765 152.003 24.073 152.201 24.337C152.399 24.601 152.674 24.81 153.026 24.964C153.4 25.096 153.873 25.162 154.445 25.162H156.194C156.436 25.162 156.645 25.25 156.821 25.426C156.997 25.602 157.085 25.811 157.085 26.053V27.109C157.085 27.351 156.997 27.56 156.821 27.736C156.645 27.912 156.436 28 156.194 28H154.115C152.201 28 150.815 27.505 149.957 26.515C149.099 25.525 148.67 24.095 148.67 22.225V13.678H146.228C145.986 13.678 145.777 13.59 145.601 13.414C145.425 13.238 145.337 13.029 145.337 12.787V11.731C145.337 11.489 145.425 11.28 145.601 11.104C145.777 10.928 145.986 10.84 146.228 10.84H148.67V5.461C148.67 5.219 148.758 5.01 148.934 4.834C149.11 4.658 149.319 4.57 149.561 4.57H150.782C151.024 4.57 151.233 4.658 151.409 4.834C151.585 5.01 151.673 5.219 151.673 5.461V10.84H155.864C156.106 10.84 156.315 10.928 156.491 11.104C156.667 11.28 156.755 11.489 156.755 11.731V12.787C156.755 13.029 156.667 13.238 156.491 13.414C156.315 13.59 156.106 13.678 155.864 13.678H151.673V22.225Z" fill="#6D727C"/>
<path d="M22.8019 18.9974C22.8019 20.4036 22.042 21.6198 20.9021 22.2658V36.0997C20.9021 37.1449 20.0473 38 19.0024 38C17.9575 38 17.1026 37.1449 17.1026 36.0997V22.2658C15.9628 21.6008 15.2029 20.4036 15.2029 18.9974C15.2029 16.9071 16.9127 15.1969 19.0024 15.1969C21.0921 15.1969 22.8019 16.9071 22.8019 18.9974ZM16.6277 7.84287C12.3152 8.71699 8.80068 12.1755 7.86979 16.4891C7.10989 20.0235 8.00278 23.368 9.92153 25.8763C10.5865 26.7315 11.8783 26.7695 12.6382 26.0094L12.7712 25.8763C13.4171 25.2303 13.4171 24.2231 12.8852 23.501C11.5933 21.7908 11.0234 19.5105 11.6313 17.0971C12.2962 14.3988 14.519 12.2135 17.2356 11.6244C18.351 11.3539 19.5133 11.3404 20.6347 11.5847C21.7561 11.829 22.8074 12.3249 23.7093 13.0349C24.6112 13.7449 25.3401 14.6505 25.8411 15.6833C26.3421 16.7162 26.6021 17.8494 26.6014 18.9974C26.6014 20.6506 26.0695 22.1708 25.1576 23.406C24.5877 24.1851 24.6067 25.2493 25.2906 25.9333C26.1265 26.7695 27.5133 26.6364 28.2162 25.6673C29.5841 23.8051 30.4009 21.4867 30.4009 18.9974C30.4009 11.9284 23.9608 6.36067 16.6277 7.84287ZM16.7797 0.127818C8.17376 1.09695 1.16364 8.0709 0.137773 16.6791C-0.527143 22.2848 1.25863 27.4536 4.54522 31.3111C5.24813 32.1282 6.50197 32.1852 7.26187 31.4251L7.35686 31.3301C8.02178 30.665 8.07877 29.5819 7.45185 28.8598C5.88996 27.0391 4.78269 24.8734 4.22121 22.541C3.65973 20.2086 3.66009 17.7762 4.22226 15.4439C5.55209 9.72413 10.2635 5.20151 16.0388 4.09936C25.7085 2.23711 34.2005 9.64812 34.2005 18.9974C34.2005 22.7219 32.8326 26.1424 30.5909 28.8027C30.2832 29.1648 30.1223 29.629 30.1399 30.1039C30.1575 30.5788 30.3523 31.0298 30.6859 31.3681C31.4838 32.1662 32.7946 32.1092 33.5166 31.2351C36.4161 27.8176 38.0054 23.4797 38 18.9974C38 7.76686 28.2542 -1.18336 16.7797 0.127818Z" fill="#ED8A0A"/>
</svg>
