<svg width="308" height="152" viewBox="0 0 308 152" fill="none" xmlns="http://www.w3.org/2000/svg">
<path d="M29.2466 151.295C28.7786 151.294 28.3147 151.207 27.8787 151.037C27.1736 150.766 26.5676 150.288 26.1412 149.665C25.7148 149.043 25.4881 148.305 25.4914 147.551V108.48C25.4899 107.157 24.9632 105.889 24.0268 104.954C23.0904 104.019 21.8209 103.493 20.4966 103.491H12.485C9.17494 103.488 6.00147 102.173 3.66088 99.8354C1.32029 97.4979 0.0037098 94.3287 0 91.023V12.4684C0.003712 9.16274 1.32029 5.9935 3.66088 3.65602C6.00147 1.31853 9.17494 0.00370487 12.485 0H295.076C298.386 0.00370926 301.559 1.31853 303.9 3.65602C306.24 5.9935 307.557 9.16274 307.561 12.4684V91.023C307.557 94.3287 306.24 97.4979 303.9 99.8354C301.559 102.173 298.386 103.488 295.076 103.491H76.9559C76.2635 103.492 75.5788 103.636 74.9451 103.915C74.3113 104.193 73.7422 104.6 73.2738 105.109L31.9974 150.078C31.6488 150.461 31.2241 150.767 30.7505 150.976C30.2769 151.186 29.7647 151.294 29.2466 151.295ZM12.485 1.66143C9.61602 1.66467 6.86544 2.8043 4.83673 4.83031C2.80803 6.85632 1.66688 9.60323 1.66364 12.4684V91.023C1.66688 93.8882 2.80803 96.6351 4.83673 98.6611C6.86543 100.687 9.61602 101.827 12.485 101.83H20.4966C22.2619 101.832 23.9544 102.533 25.2027 103.78C26.4509 105.027 27.1531 106.717 27.155 108.48V147.551C27.155 147.97 27.2817 148.379 27.5185 148.725C27.7553 149.07 28.0912 149.336 28.482 149.488C28.8729 149.64 29.3006 149.671 29.709 149.575C30.1175 149.48 30.4876 149.264 30.7711 148.956L72.0475 103.986C72.672 103.308 73.4305 102.765 74.2754 102.394C75.1202 102.023 76.0329 101.831 76.9559 101.83H295.076C297.945 101.827 300.695 100.687 302.724 98.6611C304.753 96.6351 305.894 93.8882 305.897 91.023V12.4684C305.894 9.60324 304.753 6.85632 302.724 4.83031C300.695 2.8043 297.945 1.66467 295.076 1.66143H12.485Z" fill="#C5C4C6"/>
<path d="M30.6241 35.3802C36.6578 35.3802 41.549 30.4955 41.549 24.4699C41.549 18.4442 36.6578 13.5595 30.6241 13.5595C24.5905 13.5595 19.6992 18.4442 19.6992 24.4699C19.6992 30.4955 24.5905 35.3802 30.6241 35.3802Z" fill="#C5C4C6"/>
<path d="M282.329 84.8406H25.2301C24.4643 84.8415 23.7059 84.6917 22.9982 84.3997C22.2905 84.1077 21.6473 83.6792 21.1055 83.1388C20.5637 82.5984 20.1339 81.9566 19.8407 81.2501C19.5474 80.5437 19.3965 79.7865 19.3965 79.0218C19.3965 78.257 19.5474 77.4998 19.8407 76.7934C20.1339 76.0869 20.5637 75.4452 21.1055 74.9047C21.6473 74.3643 22.2905 73.9358 22.9982 73.6438C23.7059 73.3518 24.4643 73.202 25.2301 73.2029H282.329C283.095 73.202 283.853 73.3518 284.561 73.6438C285.269 73.9358 285.912 74.3643 286.454 74.9047C286.995 75.4452 287.425 76.0869 287.718 76.7934C288.012 77.4998 288.163 78.257 288.163 79.0218C288.163 79.7865 288.012 80.5437 287.718 81.2501C287.425 81.9566 286.995 82.5984 286.454 83.1388C285.912 83.6792 285.269 84.1077 284.561 84.3997C283.853 84.6917 283.095 84.8415 282.329 84.8406Z" fill="#C5C4C6"/>
<path d="M198.572 60.1104H25.2301C24.4643 60.1113 23.7059 59.9615 22.9982 59.6695C22.2905 59.3775 21.6473 58.949 21.1055 58.4086C20.5637 57.8682 20.1339 57.2264 19.8407 56.5199C19.5474 55.8135 19.3965 55.0563 19.3965 54.2916C19.3965 53.5268 19.5474 52.7696 19.8407 52.0632C20.1339 51.3567 20.5637 50.715 21.1055 50.1745C21.6473 49.6341 22.2905 49.2056 22.9982 48.9136C23.7059 48.6216 24.4643 48.4718 25.2301 48.4727H198.572C199.337 48.4718 200.096 48.6216 200.803 48.9136C201.511 49.2056 202.154 49.6341 202.696 50.1745C203.238 50.715 203.668 51.3567 203.961 52.0632C204.254 52.7696 204.405 53.5268 204.405 54.2916C204.405 55.0563 204.254 55.8135 203.961 56.5199C203.668 57.2264 203.238 57.8682 202.696 58.4086C202.154 58.949 201.511 59.3775 200.803 59.6695C200.096 59.9615 199.337 60.1113 198.572 60.1104Z" fill="#C5C4C6"/>
</svg>
