<svg width="308" height="152" viewBox="0 0 308 152" fill="none" xmlns="http://www.w3.org/2000/svg">
<path d="M278.558 151.402C278.04 151.401 277.528 151.293 277.054 151.083C276.58 150.874 276.156 150.568 275.807 150.185L234.531 105.216C234.062 104.707 233.493 104.3 232.859 104.022C232.226 103.743 231.541 103.599 230.849 103.598H12.7292C9.41907 103.594 6.2456 102.28 3.90501 99.9421C1.56442 97.6047 0.247853 94.4354 0.244141 91.1297V12.5752C0.247855 9.2695 1.56444 6.10026 3.90503 3.76278C6.24562 1.4253 9.41907 0.11046 12.7292 0.10675H295.32C298.63 0.110458 301.803 1.42527 304.144 3.76276C306.484 6.10024 307.801 9.26949 307.805 12.5752V91.1297C307.801 94.4354 306.484 97.6047 304.144 99.9422C301.803 102.28 298.63 103.594 295.32 103.598H287.308C285.984 103.6 284.714 104.126 283.778 105.061C282.841 105.996 282.315 107.264 282.313 108.587V147.658C282.316 148.412 282.09 149.149 281.663 149.772C281.237 150.395 280.631 150.873 279.926 151.143C279.49 151.314 279.026 151.401 278.558 151.402ZM12.7291 1.76816C9.86013 1.77139 7.10955 2.91103 5.08085 4.93703C3.05215 6.96304 1.911 9.70996 1.90776 12.5752V91.1297C1.911 93.9949 3.05215 96.7418 5.08085 98.7678C7.10955 100.794 9.86013 101.933 12.7291 101.937H230.849C231.772 101.938 232.684 102.13 233.529 102.501C234.374 102.872 235.132 103.414 235.757 104.093L277.034 149.062C277.317 149.371 277.687 149.587 278.096 149.682C278.504 149.777 278.932 149.747 279.323 149.595C279.713 149.443 280.049 149.177 280.286 148.831C280.523 148.486 280.65 148.077 280.65 147.658V108.587C280.652 106.824 281.354 105.133 282.602 103.887C283.85 102.64 285.543 101.939 287.308 101.937H295.32C298.189 101.934 300.939 100.794 302.968 98.7679C304.997 96.7419 306.138 93.9949 306.141 91.1297V12.5752C306.138 9.70999 304.997 6.96306 302.968 4.93706C300.939 2.91105 298.189 1.77142 295.32 1.76818L12.7291 1.76816Z" fill="#C5C4C6"/>
<path d="M30.8682 34.7595C36.9019 34.7595 41.7931 29.8747 41.7931 23.8491C41.7931 17.8235 36.9019 12.9387 30.8682 12.9387C24.8346 12.9387 19.9434 17.8235 19.9434 23.8491C19.9434 29.8747 24.8346 34.7595 30.8682 34.7595Z" fill="#180E01"/>
<path d="M282.572 84.2198H25.4731C23.9278 84.2198 22.4458 83.6068 21.3531 82.5155C20.2604 81.4243 19.6465 79.9442 19.6465 78.401C19.6465 76.8577 20.2604 75.3776 21.3531 74.2864C22.4458 73.1951 23.9278 72.5821 25.4731 72.5821H282.572C284.117 72.5821 285.599 73.1951 286.692 74.2864C287.785 75.3776 288.399 76.8577 288.399 78.401C288.399 79.9442 287.785 81.4243 286.692 82.5155C285.599 83.6068 284.117 84.2198 282.572 84.2198Z" fill="#ED8A0A"/>
<path d="M198.816 59.4897H25.4742C24.7084 59.4906 23.95 59.3408 23.2423 59.0487C22.5346 58.7567 21.8914 58.3282 21.3497 57.7878C20.8079 57.2474 20.3781 56.6056 20.0848 55.8992C19.7916 55.1928 19.6406 54.4355 19.6406 53.6708C19.6406 52.9061 19.7916 52.1488 20.0848 51.4424C20.3781 50.736 20.8079 50.0942 21.3497 49.5538C21.8914 49.0134 22.5346 48.5849 23.2423 48.2929C23.95 48.0009 24.7084 47.851 25.4742 47.8519H198.816C199.581 47.851 200.34 48.0009 201.048 48.2929C201.755 48.5849 202.398 49.0134 202.94 49.5538C203.482 50.0942 203.912 50.736 204.205 51.4424C204.498 52.1488 204.649 52.9061 204.649 53.6708C204.649 54.4355 204.498 55.1928 204.205 55.8992C203.912 56.6056 203.482 57.2474 202.94 57.7878C202.398 58.3282 201.755 58.7567 201.048 59.0487C200.34 59.3408 199.581 59.4906 198.816 59.4897Z" fill="#ED8A0A"/>
</svg>
