<svg width="308" height="152" viewBox="0 0 308 152" fill="none" xmlns="http://www.w3.org/2000/svg">
<path d="M29.2466 151.418C28.7786 151.418 28.3147 151.33 27.8787 151.16C27.1736 150.89 26.5677 150.411 26.1413 149.789C25.7149 149.166 25.4882 148.429 25.4914 147.674V108.603C25.4899 107.281 24.9632 106.013 24.0268 105.078C23.0904 104.143 21.8208 103.616 20.4966 103.615H12.485C9.17494 103.611 6.00149 102.296 3.66089 99.9589C1.3203 97.6215 0.0037186 94.4522 0 91.1465V12.592C0.003712 9.2863 1.32029 6.11702 3.66088 3.77954C6.00147 1.44206 9.17494 0.127242 12.485 0.123535H295.076C298.386 0.127244 301.559 1.44206 303.9 3.77954C306.24 6.11702 307.557 9.2863 307.561 12.592V91.1465C307.557 94.4522 306.24 97.6215 303.9 99.9589C301.559 102.296 298.386 103.611 295.076 103.615H76.9559C76.2635 103.616 75.5788 103.76 74.9451 104.038C74.3113 104.317 73.7422 104.723 73.2738 105.233L31.9974 150.202C31.6488 150.585 31.2241 150.89 30.7505 151.1C30.2769 151.309 29.7647 151.418 29.2466 151.418ZM12.485 1.78492C9.61602 1.78815 6.86544 2.92778 4.83673 4.95379C2.80803 6.9798 1.66688 9.72674 1.66364 12.5919V91.1465C1.66688 94.0117 2.80803 96.7587 4.83673 98.7847C6.86543 100.811 9.61602 101.95 12.485 101.954H20.4966C22.2619 101.956 23.9544 102.657 25.2027 103.903C26.4509 105.15 27.1531 106.84 27.155 108.603V147.674C27.155 148.093 27.2817 148.502 27.5185 148.848C27.7553 149.194 28.0912 149.46 28.482 149.612C28.8729 149.764 29.3006 149.794 29.709 149.699C30.1175 149.604 30.4876 149.388 30.7711 149.079L72.0475 104.11C72.672 103.431 73.4305 102.889 74.2754 102.518C75.1202 102.147 76.0329 101.955 76.9559 101.954H295.076C297.945 101.95 300.695 100.811 302.724 98.7847C304.753 96.7587 305.894 94.0117 305.897 91.1465V12.592C305.894 9.7268 304.753 6.97985 302.724 4.95384C300.695 2.92784 297.945 1.7882 295.076 1.78497L12.485 1.78492Z" fill="#C5C4C6"/>
<path d="M30.6241 35.5038C36.6578 35.5038 41.549 30.619 41.549 24.5934C41.549 18.5677 36.6578 13.683 30.6241 13.683C24.5905 13.683 19.6992 18.5677 19.6992 24.5934C19.6992 30.619 24.5905 35.5038 30.6241 35.5038Z" fill="#C5C4C6"/>
<path d="M282.329 84.9641H25.2301C24.4643 84.9651 23.7059 84.8152 22.9982 84.5232C22.2905 84.2312 21.6473 83.8027 21.1055 83.2623C20.5637 82.7219 20.1339 82.0801 19.8407 81.3737C19.5474 80.6672 19.3965 79.91 19.3965 79.1453C19.3965 78.3805 19.5474 77.6233 19.8407 76.9169C20.1339 76.2105 20.5637 75.5687 21.1055 75.0283C21.6473 74.4878 22.2905 74.0594 22.9982 73.7674C23.7059 73.4754 24.4643 73.3255 25.2301 73.3264H282.329C283.874 73.3264 285.356 73.9395 286.449 75.0307C287.542 76.122 288.156 77.602 288.156 79.1453C288.156 80.6885 287.542 82.1686 286.449 83.2599C285.356 84.3511 283.874 84.9641 282.329 84.9641Z" fill="#C5C4C6"/>
<path d="M198.572 60.2339H25.2301C24.4643 60.2348 23.7059 60.085 22.9982 59.793C22.2905 59.501 21.6473 59.0725 21.1055 58.5321C20.5637 57.9917 20.1339 57.3499 19.8407 56.6434C19.5474 55.937 19.3965 55.1798 19.3965 54.4151C19.3965 53.6503 19.5474 52.8931 19.8407 52.1867C20.1339 51.4802 20.5637 50.8385 21.1055 50.298C21.6473 49.7576 22.2905 49.3291 22.9982 49.0371C23.7059 48.7451 24.4643 48.5953 25.2301 48.5962H198.572C199.337 48.5953 200.096 48.7451 200.803 49.0371C201.511 49.3291 202.154 49.7576 202.696 50.298C203.238 50.8385 203.668 51.4802 203.961 52.1867C204.254 52.8931 204.405 53.6503 204.405 54.4151C204.405 55.1798 204.254 55.937 203.961 56.6434C203.668 57.3499 203.238 57.9917 202.696 58.5321C202.154 59.0725 201.511 59.501 200.803 59.793C200.096 60.085 199.337 60.2348 198.572 60.2339Z" fill="#C5C4C6"/>
</svg>
