<svg width="29" height="20" viewBox="0 0 29 20" fill="none" xmlns="http://www.w3.org/2000/svg">
<path fill-rule="evenodd" clip-rule="evenodd" d="M0 9.99998C0 9.73476 0.105357 9.48041 0.292893 9.29288C0.48043 9.10534 0.734784 8.99998 1 8.99998H24.586L18.292 2.70798C18.1042 2.52021 17.9987 2.26553 17.9987 1.99998C17.9987 1.73443 18.1042 1.47975 18.292 1.29198C18.4798 1.10421 18.7344 0.998718 19 0.998718C19.2656 0.998718 19.5202 1.10421 19.708 1.29198L27.708 9.29198C27.8011 9.38487 27.875 9.49522 27.9254 9.61671C27.9758 9.7382 28.0018 9.86845 28.0018 9.99998C28.0018 10.1315 27.9758 10.2618 27.9254 10.3832C27.875 10.5047 27.8011 10.6151 27.708 10.708L19.708 18.708C19.5202 18.8958 19.2656 19.0012 19 19.0012C18.7344 19.0012 18.4798 18.8958 18.292 18.708C18.1042 18.5202 17.9987 18.2655 17.9987 18C17.9987 17.7344 18.1042 17.4798 18.292 17.292L24.586 11H1C0.734784 11 0.48043 10.8946 0.292893 10.7071C0.105357 10.5196 0 10.2652 0 9.99998Z" fill="#061020"/>
</svg>
