<svg width="26" height="42" viewBox="0 0 26 42" fill="none" xmlns="http://www.w3.org/2000/svg">
<path d="M25 29.584C23.5001 31.2883 21.6538 32.653 19.5845 33.587C17.5151 34.521 15.2703 35.0027 13 35M13 35C10.7297 35.0027 8.48486 34.521 6.41552 33.587C4.34617 32.653 2.49991 31.2883 1 29.584M13 35V41M9 41H17M13 1C17.4183 1 21 4.58172 21 9V19C21 23.4183 17.4183 27 13 27C8.58172 27 5 23.4183 5 19V9C5 4.58172 8.58172 1 13 1Z" stroke="#6D727C" stroke-width="2" stroke-linecap="round" stroke-linejoin="round"/>
</svg>
