<svg width="190" height="55" viewBox="0 0 190 55" fill="none" xmlns="http://www.w3.org/2000/svg">
<rect x="1" y="1" width="188" height="53" rx="9" fill="white" stroke="#EDB770" stroke-width="2"/>
<path d="M51.2986 39C51.2133 39 51.1333 38.968 51.0586 38.904C50.9946 38.84 50.9626 38.76 50.9626 38.664L50.9946 38.52L54.8506 28.2C54.9253 27.9333 55.112 27.8 55.4106 27.8H57.1546C57.432 27.8 57.6186 27.9333 57.7146 28.2L61.5706 38.52C61.5813 38.552 61.5866 38.6 61.5866 38.664C61.5866 38.76 61.5546 38.84 61.4906 38.904C61.4266 38.968 61.352 39 61.2666 39H59.8746C59.736 39 59.6293 38.968 59.5546 38.904C59.48 38.84 59.432 38.7707 59.4106 38.696L58.6586 36.744H53.9066L53.1546 38.696C53.0693 38.8987 52.9146 39 52.6906 39H51.2986ZM58.0986 34.904L56.2746 29.96L54.4666 34.904H58.0986ZM63.2884 42.04C63.1817 42.04 63.091 42.0027 63.0164 41.928C62.9417 41.864 62.9044 41.7733 62.9044 41.656V31.064C62.9044 30.9467 62.9417 30.856 63.0164 30.792C63.091 30.7173 63.1817 30.68 63.2884 30.68H64.5524C64.6697 30.68 64.7604 30.7173 64.8244 30.792C64.899 30.856 64.9364 30.9467 64.9364 31.064V31.704C65.5337 30.9147 66.387 30.52 67.4964 30.52C68.5737 30.52 69.4004 30.8613 69.9764 31.544C70.5524 32.216 70.8617 33.128 70.9044 34.28C70.915 34.408 70.9204 34.5947 70.9204 34.84C70.9204 35.096 70.915 35.288 70.9044 35.416C70.8617 36.536 70.5524 37.4427 69.9764 38.136C69.4004 38.8187 68.5737 39.16 67.4964 39.16C66.419 39.16 65.5977 38.7813 65.0324 38.024V41.656C65.0324 41.7733 64.995 41.864 64.9204 41.928C64.8564 42.0027 64.7657 42.04 64.6484 42.04H63.2884ZM66.9044 37.448C68.0564 37.448 68.6697 36.7387 68.7444 35.32C68.755 35.2133 68.7604 35.0533 68.7604 34.84C68.7604 34.6267 68.755 34.4667 68.7444 34.36C68.6697 32.9413 68.0564 32.232 66.9044 32.232C66.2857 32.232 65.827 32.4293 65.5284 32.824C65.2297 33.2187 65.0644 33.704 65.0324 34.28L65.0164 34.888L65.0324 35.512C65.0537 36.0453 65.219 36.504 65.5284 36.888C65.8484 37.2613 66.307 37.448 66.9044 37.448ZM73.1165 42.04C73.0098 42.04 72.9192 42.0027 72.8445 41.928C72.7698 41.864 72.7325 41.7733 72.7325 41.656V31.064C72.7325 30.9467 72.7698 30.856 72.8445 30.792C72.9192 30.7173 73.0098 30.68 73.1165 30.68H74.3805C74.4978 30.68 74.5885 30.7173 74.6525 30.792C74.7272 30.856 74.7645 30.9467 74.7645 31.064V31.704C75.3618 30.9147 76.2152 30.52 77.3245 30.52C78.4018 30.52 79.2285 30.8613 79.8045 31.544C80.3805 32.216 80.6898 33.128 80.7325 34.28C80.7432 34.408 80.7485 34.5947 80.7485 34.84C80.7485 35.096 80.7432 35.288 80.7325 35.416C80.6898 36.536 80.3805 37.4427 79.8045 38.136C79.2285 38.8187 78.4018 39.16 77.3245 39.16C76.2472 39.16 75.4258 38.7813 74.8605 38.024V41.656C74.8605 41.7733 74.8232 41.864 74.7485 41.928C74.6845 42.0027 74.5938 42.04 74.4765 42.04H73.1165ZM76.7325 37.448C77.8845 37.448 78.4978 36.7387 78.5725 35.32C78.5832 35.2133 78.5885 35.0533 78.5885 34.84C78.5885 34.6267 78.5832 34.4667 78.5725 34.36C78.4978 32.9413 77.8845 32.232 76.7325 32.232C76.1138 32.232 75.6552 32.4293 75.3565 32.824C75.0578 33.2187 74.8925 33.704 74.8605 34.28L74.8445 34.888L74.8605 35.512C74.8818 36.0453 75.0472 36.504 75.3565 36.888C75.6765 37.2613 76.1352 37.448 76.7325 37.448ZM82.9446 39C82.838 39 82.7473 38.9627 82.6726 38.888C82.598 38.8133 82.5606 38.7227 82.5606 38.616V28.024C82.5606 27.9067 82.598 27.816 82.6726 27.752C82.7473 27.6773 82.838 27.64 82.9446 27.64H84.2726C84.39 27.64 84.4806 27.6773 84.5446 27.752C84.6193 27.816 84.6566 27.9067 84.6566 28.024V38.616C84.6566 38.7227 84.6193 38.8133 84.5446 38.888C84.4806 38.9627 84.39 39 84.2726 39H82.9446ZM90.363 39.16C89.179 39.16 88.235 38.8187 87.531 38.136C86.8377 37.4427 86.4697 36.472 86.427 35.224L86.411 34.824L86.427 34.424C86.4803 33.208 86.8537 32.2533 87.547 31.56C88.251 30.8667 89.1897 30.52 90.363 30.52C91.6217 30.52 92.5923 30.904 93.275 31.672C93.9683 32.44 94.315 33.464 94.315 34.744V35.08C94.315 35.1867 94.2777 35.2773 94.203 35.352C94.1283 35.4267 94.0323 35.464 93.915 35.464H88.603V35.592C88.6243 36.1787 88.7843 36.6747 89.083 37.08C89.3923 37.4747 89.8137 37.672 90.347 37.672C90.9763 37.672 91.483 37.4267 91.867 36.936C91.963 36.8187 92.0377 36.744 92.091 36.712C92.155 36.68 92.2457 36.664 92.363 36.664H93.739C93.835 36.664 93.915 36.696 93.979 36.76C94.0537 36.8133 94.091 36.8827 94.091 36.968C94.091 37.224 93.9363 37.528 93.627 37.88C93.3283 38.2213 92.8963 38.52 92.331 38.776C91.7657 39.032 91.1097 39.16 90.363 39.16ZM92.139 34.12V34.072C92.139 33.4427 91.979 32.936 91.659 32.552C91.3497 32.168 90.9177 31.976 90.363 31.976C89.8083 31.976 89.3763 32.168 89.067 32.552C88.7577 32.936 88.603 33.4427 88.603 34.072V34.12H92.139ZM100.246 39C100.139 39 100.048 38.9627 99.9736 38.888C99.899 38.8133 99.8616 38.7227 99.8616 38.616V28.2C99.8616 28.0827 99.8936 27.9867 99.9576 27.912C100.032 27.8373 100.128 27.8 100.246 27.8H104.534C105.814 27.8 106.822 28.104 107.558 28.712C108.294 29.3093 108.662 30.1893 108.662 31.352C108.662 32.5147 108.294 33.3947 107.558 33.992C106.832 34.5787 105.824 34.872 104.534 34.872H102.15V38.616C102.15 38.7227 102.112 38.8133 102.038 38.888C101.974 38.9627 101.883 39 101.766 39H100.246ZM104.454 33.096C105.072 33.096 105.547 32.952 105.878 32.664C106.208 32.3653 106.374 31.928 106.374 31.352C106.374 30.7973 106.214 30.3653 105.894 30.056C105.574 29.736 105.094 29.576 104.454 29.576H102.118V33.096H104.454ZM113.787 39.16C112.539 39.16 111.574 38.84 110.891 38.2C110.208 37.5493 109.84 36.664 109.787 35.544L109.771 34.84L109.787 34.136C109.84 33.0267 110.214 32.1467 110.907 31.496C111.6 30.8453 112.56 30.52 113.787 30.52C115.014 30.52 115.974 30.8453 116.667 31.496C117.36 32.1467 117.734 33.0267 117.787 34.136C117.798 34.264 117.803 34.4987 117.803 34.84C117.803 35.1813 117.798 35.416 117.787 35.544C117.734 36.664 117.366 37.5493 116.683 38.2C116 38.84 115.035 39.16 113.787 39.16ZM113.787 37.576C114.352 37.576 114.79 37.4 115.099 37.048C115.408 36.6853 115.579 36.1573 115.611 35.464C115.622 35.3573 115.627 35.1493 115.627 34.84C115.627 34.5307 115.622 34.3227 115.611 34.216C115.579 33.5227 115.408 33 115.099 32.648C114.79 32.2853 114.352 32.104 113.787 32.104C113.222 32.104 112.784 32.2853 112.475 32.648C112.166 33 111.995 33.5227 111.963 34.216L111.947 34.84L111.963 35.464C111.995 36.1573 112.166 36.6853 112.475 37.048C112.784 37.4 113.222 37.576 113.787 37.576ZM122.664 39.16C121.587 39.16 120.76 38.8133 120.184 38.12C119.608 37.4267 119.299 36.504 119.256 35.352L119.24 34.824L119.256 34.312C119.288 33.192 119.592 32.28 120.168 31.576C120.755 30.872 121.587 30.52 122.664 30.52C123.699 30.52 124.52 30.872 125.128 31.576V28.024C125.128 27.9067 125.165 27.816 125.24 27.752C125.315 27.6773 125.405 27.64 125.512 27.64H126.872C126.989 27.64 127.08 27.6773 127.144 27.752C127.219 27.816 127.256 27.9067 127.256 28.024V38.616C127.256 38.7227 127.219 38.8133 127.144 38.888C127.08 38.9627 126.989 39 126.872 39H125.608C125.501 39 125.411 38.9627 125.336 38.888C125.261 38.8133 125.224 38.7227 125.224 38.616V38.024C124.616 38.7813 123.763 39.16 122.664 39.16ZM123.256 37.448C123.875 37.448 124.333 37.2507 124.632 36.856C124.931 36.4613 125.096 35.976 125.128 35.4C125.139 35.272 125.144 35.064 125.144 34.776C125.144 34.4987 125.139 34.296 125.128 34.168C125.107 33.6347 124.936 33.1813 124.616 32.808C124.307 32.424 123.853 32.232 123.256 32.232C122.104 32.232 121.491 32.9413 121.416 34.36L121.4 34.84L121.416 35.32C121.491 36.7387 122.104 37.448 123.256 37.448ZM132.988 39.16C131.815 39.16 130.876 38.8347 130.172 38.184C129.479 37.5333 129.111 36.632 129.068 35.48L129.052 34.84L129.068 34.2C129.111 33.048 129.479 32.1467 130.172 31.496C130.876 30.8453 131.815 30.52 132.988 30.52C133.82 30.52 134.524 30.6693 135.1 30.968C135.687 31.2667 136.119 31.6347 136.396 32.072C136.684 32.4987 136.839 32.904 136.86 33.288C136.871 33.3947 136.834 33.4853 136.748 33.56C136.674 33.6347 136.583 33.672 136.476 33.672H135.068C134.962 33.672 134.876 33.6507 134.812 33.608C134.759 33.5547 134.706 33.4693 134.652 33.352C134.492 32.936 134.279 32.6373 134.012 32.456C133.756 32.2747 133.426 32.184 133.02 32.184C132.476 32.184 132.05 32.36 131.74 32.712C131.431 33.0533 131.266 33.576 131.244 34.28L131.228 34.872L131.244 35.4C131.287 36.7973 131.879 37.496 133.02 37.496C133.436 37.496 133.772 37.4053 134.028 37.224C134.284 37.0427 134.492 36.744 134.652 36.328C134.706 36.2107 134.759 36.1307 134.812 36.088C134.876 36.0347 134.962 36.008 135.068 36.008H136.476C136.583 36.008 136.674 36.0453 136.748 36.12C136.834 36.1947 136.871 36.2853 136.86 36.392C136.839 36.7653 136.69 37.1653 136.412 37.592C136.135 38.0187 135.708 38.3867 135.132 38.696C134.556 39.0053 133.842 39.16 132.988 39.16ZM140.945 39.16C140.401 39.16 139.9 39.0533 139.441 38.84C138.993 38.616 138.636 38.3173 138.369 37.944C138.113 37.5707 137.985 37.16 137.985 36.712C137.985 35.9867 138.278 35.4 138.865 34.952C139.452 34.504 140.257 34.2 141.281 34.04L143.473 33.72V33.384C143.473 32.9147 143.356 32.5627 143.121 32.328C142.886 32.0933 142.508 31.976 141.985 31.976C141.633 31.976 141.345 32.0453 141.121 32.184C140.908 32.312 140.737 32.44 140.609 32.568C140.481 32.7067 140.396 32.7973 140.353 32.84C140.31 32.968 140.23 33.032 140.113 33.032H138.881C138.785 33.032 138.7 33 138.625 32.936C138.561 32.872 138.529 32.7867 138.529 32.68C138.54 32.4133 138.668 32.1093 138.913 31.768C139.169 31.4267 139.558 31.1333 140.081 30.888C140.604 30.6427 141.244 30.52 142.001 30.52C143.26 30.52 144.177 30.8027 144.753 31.368C145.329 31.9333 145.617 32.6747 145.617 33.592V38.616C145.617 38.7227 145.58 38.8133 145.505 38.888C145.441 38.9627 145.35 39 145.233 39H143.937C143.83 39 143.74 38.9627 143.665 38.888C143.59 38.8133 143.553 38.7227 143.553 38.616V37.992C143.318 38.3333 142.982 38.616 142.545 38.84C142.118 39.0533 141.585 39.16 140.945 39.16ZM141.489 37.64C142.076 37.64 142.556 37.448 142.929 37.064C143.302 36.68 143.489 36.12 143.489 35.384V35.048L141.889 35.304C141.27 35.4 140.801 35.5547 140.481 35.768C140.172 35.9813 140.017 36.2427 140.017 36.552C140.017 36.8933 140.161 37.16 140.449 37.352C140.737 37.544 141.084 37.64 141.489 37.64ZM150.822 39.16C150.022 39.16 149.35 39.0427 148.806 38.808C148.262 38.5627 147.856 38.28 147.59 37.96C147.334 37.6293 147.206 37.3467 147.206 37.112C147.206 37.0053 147.243 36.92 147.318 36.856C147.392 36.792 147.478 36.76 147.574 36.76H148.838C148.934 36.76 149.014 36.7973 149.078 36.872C149.12 36.904 149.232 37 149.414 37.16C149.595 37.3307 149.808 37.464 150.054 37.56C150.299 37.656 150.571 37.704 150.87 37.704C151.296 37.704 151.648 37.6187 151.926 37.448C152.203 37.2773 152.342 37.0427 152.342 36.744C152.342 36.52 152.278 36.3387 152.15 36.2C152.032 36.0613 151.814 35.9387 151.494 35.832C151.174 35.7147 150.699 35.592 150.07 35.464C149.163 35.272 148.491 34.9787 148.054 34.584C147.627 34.1893 147.414 33.6667 147.414 33.016C147.414 32.5893 147.542 32.1893 147.798 31.816C148.054 31.432 148.432 31.1227 148.934 30.888C149.446 30.6427 150.054 30.52 150.758 30.52C151.472 30.52 152.091 30.6373 152.614 30.872C153.136 31.096 153.531 31.368 153.798 31.688C154.075 31.9973 154.214 32.2747 154.214 32.52C154.214 32.616 154.176 32.7013 154.102 32.776C154.038 32.84 153.958 32.872 153.862 32.872H152.678C152.592 32.872 152.502 32.8347 152.406 32.76C152.331 32.7067 152.214 32.6053 152.054 32.456C151.894 32.3067 151.707 32.1893 151.494 32.104C151.28 32.0187 151.03 31.976 150.742 31.976C150.347 31.976 150.038 32.0613 149.814 32.232C149.6 32.4027 149.494 32.6267 149.494 32.904C149.494 33.1067 149.547 33.272 149.654 33.4C149.76 33.528 149.968 33.6507 150.278 33.768C150.587 33.8853 151.051 34.0027 151.67 34.12C152.694 34.3227 153.424 34.6373 153.862 35.064C154.31 35.4907 154.534 36.0133 154.534 36.632C154.534 37.3787 154.208 37.9867 153.558 38.456C152.907 38.9253 151.995 39.16 150.822 39.16ZM159.914 39C158.943 39 158.213 38.7493 157.722 38.248C157.242 37.736 157.002 36.9893 157.002 36.008V32.376H155.738C155.631 32.376 155.541 32.3387 155.466 32.264C155.391 32.1787 155.354 32.0827 155.354 31.976V31.064C155.354 30.9573 155.391 30.8667 155.466 30.792C155.541 30.7173 155.631 30.68 155.738 30.68H157.002V28.024C157.002 27.9067 157.039 27.816 157.114 27.752C157.189 27.6773 157.279 27.64 157.386 27.64H158.682C158.799 27.64 158.89 27.6773 158.954 27.752C159.029 27.816 159.066 27.9067 159.066 28.024V30.68H161.066C161.183 30.68 161.274 30.7173 161.338 30.792C161.413 30.856 161.45 30.9467 161.45 31.064V31.976C161.45 32.0933 161.413 32.1893 161.338 32.264C161.263 32.3387 161.173 32.376 161.066 32.376H159.066V35.848C159.066 36.3067 159.146 36.6533 159.306 36.888C159.466 37.1227 159.733 37.24 160.106 37.24H161.21C161.317 37.24 161.407 37.2773 161.482 37.352C161.557 37.4267 161.594 37.5173 161.594 37.624V38.616C161.594 38.7227 161.557 38.8133 161.482 38.888C161.418 38.9627 161.327 39 161.21 39H159.914ZM166.165 39.16C165.365 39.16 164.693 39.0427 164.149 38.808C163.605 38.5627 163.2 38.28 162.933 37.96C162.677 37.6293 162.549 37.3467 162.549 37.112C162.549 37.0053 162.587 36.92 162.661 36.856C162.736 36.792 162.821 36.76 162.917 36.76H164.181C164.277 36.76 164.357 36.7973 164.421 36.872C164.464 36.904 164.576 37 164.757 37.16C164.939 37.3307 165.152 37.464 165.397 37.56C165.643 37.656 165.915 37.704 166.213 37.704C166.64 37.704 166.992 37.6187 167.269 37.448C167.547 37.2773 167.685 37.0427 167.685 36.744C167.685 36.52 167.621 36.3387 167.493 36.2C167.376 36.0613 167.157 35.9387 166.837 35.832C166.517 35.7147 166.043 35.592 165.413 35.464C164.507 35.272 163.835 34.9787 163.397 34.584C162.971 34.1893 162.757 33.6667 162.757 33.016C162.757 32.5893 162.885 32.1893 163.141 31.816C163.397 31.432 163.776 31.1227 164.277 30.888C164.789 30.6427 165.397 30.52 166.101 30.52C166.816 30.52 167.435 30.6373 167.957 30.872C168.48 31.096 168.875 31.368 169.141 31.688C169.419 31.9973 169.557 32.2747 169.557 32.52C169.557 32.616 169.52 32.7013 169.445 32.776C169.381 32.84 169.301 32.872 169.205 32.872H168.021C167.936 32.872 167.845 32.8347 167.749 32.76C167.675 32.7067 167.557 32.6053 167.397 32.456C167.237 32.3067 167.051 32.1893 166.837 32.104C166.624 32.0187 166.373 31.976 166.085 31.976C165.691 31.976 165.381 32.0613 165.157 32.232C164.944 32.4027 164.837 32.6267 164.837 32.904C164.837 33.1067 164.891 33.272 164.997 33.4C165.104 33.528 165.312 33.6507 165.621 33.768C165.931 33.8853 166.395 34.0027 167.013 34.12C168.037 34.3227 168.768 34.6373 169.205 35.064C169.653 35.4907 169.877 36.0133 169.877 36.632C169.877 37.3787 169.552 37.9867 168.901 38.456C168.251 38.9253 167.339 39.16 166.165 39.16Z" fill="#180E01"/>
<path opacity="0.4" d="M52.1686 24C52.082 24 52.0083 23.974 51.9476 23.922C51.8956 23.8613 51.8696 23.7877 51.8696 23.701V15.199C51.8696 15.1123 51.8956 15.043 51.9476 14.991C52.0083 14.9303 52.082 14.9 52.1686 14.9H52.8576C52.9443 14.9 53.0136 14.9303 53.0656 14.991C53.1263 15.043 53.1566 15.1123 53.1566 15.199V22.869H57.4726C57.568 22.869 57.6416 22.8993 57.6936 22.96C57.7543 23.012 57.7846 23.0857 57.7846 23.181V23.701C57.7846 23.7877 57.7543 23.8613 57.6936 23.922C57.633 23.974 57.5593 24 57.4726 24H52.1686ZM59.2208 15.979C59.1342 15.979 59.0605 15.953 58.9998 15.901C58.9478 15.8403 58.9218 15.7667 58.9218 15.68V14.978C58.9218 14.8913 58.9478 14.8177 58.9998 14.757C59.0605 14.6963 59.1342 14.666 59.2208 14.666H60.0398C60.1265 14.666 60.2002 14.6963 60.2608 14.757C60.3215 14.8177 60.3518 14.8913 60.3518 14.978V15.68C60.3518 15.7667 60.3215 15.8403 60.2608 15.901C60.2002 15.953 60.1265 15.979 60.0398 15.979H59.2208ZM59.3248 24C59.2382 24 59.1645 23.974 59.1038 23.922C59.0518 23.8613 59.0258 23.7877 59.0258 23.701V17.539C59.0258 17.4523 59.0518 17.383 59.1038 17.331C59.1645 17.2703 59.2382 17.24 59.3248 17.24H59.9488C60.0355 17.24 60.1048 17.2703 60.1568 17.331C60.2175 17.383 60.2478 17.4523 60.2478 17.539V23.701C60.2478 23.7877 60.2175 23.8613 60.1568 23.922C60.1048 23.974 60.0355 24 59.9488 24H59.3248ZM64.5143 24.13C63.9076 24.13 63.3963 24.0347 62.9803 23.844C62.5729 23.6447 62.2653 23.4193 62.0573 23.168C61.8579 22.9167 61.7583 22.7087 61.7583 22.544C61.7583 22.4573 61.7886 22.3923 61.8493 22.349C61.9186 22.297 61.9879 22.271 62.0573 22.271H62.6423C62.7289 22.271 62.8069 22.3143 62.8763 22.401C63.0843 22.6437 63.3096 22.8343 63.5523 22.973C63.7949 23.1117 64.1199 23.181 64.5273 23.181C64.9779 23.181 65.3419 23.0943 65.6193 22.921C65.9053 22.739 66.0483 22.492 66.0483 22.18C66.0483 21.972 65.9876 21.803 65.8663 21.673C65.7536 21.5343 65.5543 21.4173 65.2683 21.322C64.9909 21.218 64.5749 21.1053 64.0203 20.984C63.2663 20.8193 62.7289 20.581 62.4083 20.269C62.0963 19.957 61.9403 19.554 61.9403 19.06C61.9403 18.7307 62.0356 18.4187 62.2263 18.124C62.4256 17.8207 62.7116 17.578 63.0843 17.396C63.4656 17.2053 63.9206 17.11 64.4493 17.11C65.0039 17.11 65.4763 17.201 65.8663 17.383C66.2563 17.565 66.5466 17.7817 66.7373 18.033C66.9366 18.2757 67.0363 18.4793 67.0363 18.644C67.0363 18.722 67.0059 18.787 66.9453 18.839C66.8933 18.891 66.8283 18.917 66.7503 18.917H66.2043C66.1003 18.917 66.0136 18.8737 65.9443 18.787C65.8056 18.6223 65.6843 18.4967 65.5803 18.41C65.4849 18.3147 65.3419 18.2323 65.1513 18.163C64.9693 18.0937 64.7353 18.059 64.4493 18.059C64.0333 18.059 63.7126 18.15 63.4873 18.332C63.2619 18.5053 63.1493 18.735 63.1493 19.021C63.1493 19.203 63.1969 19.359 63.2923 19.489C63.3876 19.6103 63.5696 19.723 63.8383 19.827C64.1156 19.931 64.5143 20.0393 65.0343 20.152C65.8576 20.3253 66.4383 20.5767 66.7763 20.906C67.1229 21.2267 67.2963 21.6383 67.2963 22.141C67.2963 22.5137 67.1879 22.8517 66.9713 23.155C66.7546 23.4583 66.4339 23.6967 66.0093 23.87C65.5933 24.0433 65.0949 24.13 64.5143 24.13ZM71.4275 24C70.0582 24 69.3735 23.2373 69.3735 21.712V18.28H68.3595C68.2729 18.28 68.1992 18.254 68.1385 18.202C68.0865 18.1413 68.0605 18.0677 68.0605 17.981V17.539C68.0605 17.4523 68.0865 17.383 68.1385 17.331C68.1992 17.2703 68.2729 17.24 68.3595 17.24H69.3735V15.069C69.3735 14.9823 69.3995 14.913 69.4515 14.861C69.5122 14.8003 69.5859 14.77 69.6725 14.77H70.2835C70.3702 14.77 70.4395 14.8003 70.4915 14.861C70.5522 14.913 70.5825 14.9823 70.5825 15.069V17.24H72.1945C72.2812 17.24 72.3505 17.2703 72.4025 17.331C72.4632 17.383 72.4935 17.4523 72.4935 17.539V17.981C72.4935 18.0677 72.4632 18.1413 72.4025 18.202C72.3505 18.254 72.2812 18.28 72.1945 18.28H70.5825V21.621C70.5825 22.0543 70.6562 22.3837 70.8035 22.609C70.9509 22.8257 71.1935 22.934 71.5315 22.934H72.3245C72.4112 22.934 72.4805 22.9643 72.5325 23.025C72.5932 23.077 72.6235 23.1463 72.6235 23.233V23.701C72.6235 23.7877 72.5932 23.8613 72.5325 23.922C72.4805 23.974 72.4112 24 72.3245 24H71.4275ZM76.5706 24.13C75.678 24.13 74.963 23.857 74.4256 23.311C73.897 22.7563 73.6066 22.0023 73.5546 21.049L73.5416 20.607L73.5546 20.178C73.6153 19.242 73.91 18.4967 74.4386 17.942C74.976 17.3873 75.6823 17.11 76.5576 17.11C77.5196 17.11 78.265 17.4177 78.7936 18.033C79.3223 18.6397 79.5866 19.463 79.5866 20.503V20.724C79.5866 20.8107 79.5563 20.8843 79.4956 20.945C79.4436 20.997 79.3743 21.023 79.2876 21.023H74.7896V21.14C74.8156 21.7033 74.9846 22.1843 75.2966 22.583C75.6173 22.973 76.0376 23.168 76.5576 23.168C76.9563 23.168 77.2813 23.09 77.5326 22.934C77.7926 22.7693 77.9833 22.6003 78.1046 22.427C78.1826 22.323 78.239 22.2623 78.2736 22.245C78.317 22.219 78.3906 22.206 78.4946 22.206H79.1316C79.2096 22.206 79.2746 22.2277 79.3266 22.271C79.3786 22.3143 79.4046 22.375 79.4046 22.453C79.4046 22.6437 79.2833 22.8733 79.0406 23.142C78.8066 23.4107 78.473 23.6447 78.0396 23.844C77.615 24.0347 77.1253 24.13 76.5706 24.13ZM78.3516 20.126V20.087C78.3516 19.489 78.187 19.0037 77.8576 18.631C77.537 18.2497 77.1036 18.059 76.5576 18.059C76.0116 18.059 75.5783 18.2497 75.2576 18.631C74.9456 19.0037 74.7896 19.489 74.7896 20.087V20.126H78.3516ZM81.4401 24C81.3534 24 81.2797 23.974 81.2191 23.922C81.1671 23.8613 81.1411 23.7877 81.1411 23.701V17.539C81.1411 17.4523 81.1671 17.383 81.2191 17.331C81.2797 17.2703 81.3534 17.24 81.4401 17.24H82.0511C82.1377 17.24 82.2071 17.2703 82.2591 17.331C82.3197 17.383 82.3501 17.4523 82.3501 17.539V18.111C82.6014 17.7903 82.8961 17.5433 83.2341 17.37C83.5807 17.1967 84.0097 17.11 84.5211 17.11C85.3531 17.11 85.9987 17.3787 86.4581 17.916C86.9261 18.4447 87.1601 19.151 87.1601 20.035V23.701C87.1601 23.7877 87.1297 23.8613 87.0691 23.922C87.0171 23.974 86.9477 24 86.8611 24H86.2111C86.1244 24 86.0507 23.974 85.9901 23.922C85.9381 23.8613 85.9121 23.7877 85.9121 23.701V20.1C85.9121 19.4847 85.7604 19.008 85.4571 18.67C85.1624 18.332 84.7334 18.163 84.1701 18.163C83.6241 18.163 83.1907 18.3363 82.8701 18.683C82.5494 19.021 82.3891 19.4933 82.3891 20.1V23.701C82.3891 23.7877 82.3587 23.8613 82.2981 23.922C82.2461 23.974 82.1767 24 82.0901 24H81.4401ZM94.9804 24.13C94.027 24.13 93.286 23.8613 92.7574 23.324C92.2374 22.7867 91.96 22.0717 91.9254 21.179L91.9124 20.62L91.9254 20.061C91.96 19.177 92.2417 18.4663 92.7704 17.929C93.299 17.383 94.0357 17.11 94.9804 17.11C95.925 17.11 96.6617 17.383 97.1904 17.929C97.719 18.4663 98.0007 19.177 98.0354 20.061C98.044 20.1563 98.0484 20.3427 98.0484 20.62C98.0484 20.8973 98.044 21.0837 98.0354 21.179C98.0007 22.0717 97.719 22.7867 97.1904 23.324C96.6704 23.8613 95.9337 24.13 94.9804 24.13ZM94.9804 23.129C95.5264 23.129 95.9554 22.9557 96.2674 22.609C96.588 22.2623 96.7614 21.764 96.7874 21.114C96.796 21.0273 96.8004 20.8627 96.8004 20.62C96.8004 20.3773 96.796 20.2127 96.7874 20.126C96.7614 19.476 96.588 18.9777 96.2674 18.631C95.9554 18.2843 95.5264 18.111 94.9804 18.111C94.4344 18.111 94.001 18.2843 93.6804 18.631C93.3597 18.9777 93.1907 19.476 93.1734 20.126L93.1604 20.62L93.1734 21.114C93.1907 21.764 93.3597 22.2623 93.6804 22.609C94.001 22.9557 94.4344 23.129 94.9804 23.129ZM99.9752 24C99.8886 24 99.8149 23.974 99.7542 23.922C99.7022 23.8613 99.6762 23.7877 99.6762 23.701V17.539C99.6762 17.4523 99.7022 17.383 99.7542 17.331C99.8149 17.2703 99.8886 17.24 99.9752 17.24H100.586C100.673 17.24 100.742 17.2703 100.794 17.331C100.855 17.383 100.885 17.4523 100.885 17.539V18.111C101.137 17.7903 101.431 17.5433 101.769 17.37C102.116 17.1967 102.545 17.11 103.056 17.11C103.888 17.11 104.534 17.3787 104.993 17.916C105.461 18.4447 105.695 19.151 105.695 20.035V23.701C105.695 23.7877 105.665 23.8613 105.604 23.922C105.552 23.974 105.483 24 105.396 24H104.746C104.66 24 104.586 23.974 104.525 23.922C104.473 23.8613 104.447 23.7877 104.447 23.701V20.1C104.447 19.4847 104.296 19.008 103.992 18.67C103.698 18.332 103.269 18.163 102.705 18.163C102.159 18.163 101.726 18.3363 101.405 18.683C101.085 19.021 100.924 19.4933 100.924 20.1V23.701C100.924 23.7877 100.894 23.8613 100.833 23.922C100.781 23.974 100.712 24 100.625 24H99.9752Z" fill="#180E01"/>
<path d="M16.8975 12C15.991 11.9975 15.0929 12.1741 14.2549 12.5199C13.4169 12.8656 12.6556 13.3736 12.0146 14.0146C11.3736 14.6556 10.8656 15.4169 10.5199 16.2549C10.1741 17.0929 9.99747 17.991 10 18.8975V36.1025C9.99747 37.009 10.1741 37.9071 10.5199 38.7451C10.8656 39.5831 11.3736 40.3445 12.0146 40.9855C12.6556 41.6265 13.4169 42.1345 14.2549 42.4802C15.0929 42.8259 15.991 43.0026 16.8975 43H34.1025C35.009 43.0026 35.9071 42.8259 36.7451 42.4802C37.5831 42.1345 38.3445 41.6265 38.9855 40.9855C39.6265 40.3445 40.1345 39.5831 40.4802 38.7451C40.8259 37.9071 41.0026 37.009 41 36.1025V18.8975C41.0026 17.991 40.8259 17.0929 40.4802 16.2549C40.1345 15.4169 39.6265 14.6556 38.9855 14.0146C38.3445 13.3736 37.5831 12.8656 36.7451 12.5199C35.9071 12.1741 35.009 11.9975 34.1025 12H16.8975ZM25.3227 15.3141C28.3404 15.3141 31.0694 16.4805 33.1493 18.6592C34.7293 20.2993 35.6167 22.0392 36.071 24.3312C36.227 25.0937 36.227 27.1716 36.0797 28.029C35.5973 30.7551 34.1038 33.1987 31.8977 34.8712C31.111 35.467 29.1881 36.5017 28.88 36.5017C28.7637 36.5017 28.755 36.3854 28.8054 35.9059C28.9013 35.1386 28.9914 34.9827 29.4254 34.8005C30.1161 34.5138 31.297 33.67 32.0187 32.9492C33.2805 31.6878 34.1767 30.108 34.6121 28.3777C34.8843 27.3121 34.8485 24.9454 34.5511 23.8517C33.6123 20.3691 30.7662 17.6662 27.2854 16.9387C26.277 16.7324 24.4344 16.7324 23.4104 16.9387C19.8881 17.6662 16.9712 20.5066 16.0838 24.0794C15.8464 25.052 15.8464 27.4196 16.0838 28.3884C16.6737 30.755 18.2034 32.9231 20.2058 34.2154C20.6001 34.4779 21.0738 34.7453 21.2714 34.8267C21.7045 35.0127 21.8013 35.1706 21.8808 35.9311C21.9312 36.4009 21.9205 36.5317 21.811 36.5317C21.7403 36.5317 21.2104 36.304 20.6495 36.0367L20.5991 35.9969C17.4052 34.4276 15.3611 31.7693 14.6152 28.2314C14.434 27.3179 14.3982 25.144 14.5803 24.3061C15.0443 22.0557 15.9327 20.3003 17.41 18.7464C19.5403 16.4999 22.2799 15.3141 25.3266 15.3141H25.3227ZM25.5 18.9479C25.979 18.9468 26.4569 18.9922 26.927 19.0835C30.5259 19.8857 33.0727 23.4846 32.5777 27.0554C32.3811 28.4978 31.887 29.6797 31.0093 30.7792C30.5753 31.3343 29.5203 32.2634 29.3343 32.2634C29.3033 32.2634 29.2733 31.9098 29.2733 31.4855V30.7027L29.8081 30.0624C31.8357 27.6357 31.6903 24.245 29.4797 22.0256C28.6223 21.1576 27.6274 20.6471 26.3457 20.4165C25.5194 20.2606 25.347 20.2606 24.479 20.4059C23.1576 20.618 22.1375 21.1266 21.2288 22.0256C19.0094 24.2257 18.8622 27.6357 20.8917 30.0624L21.4264 30.7027V31.4903C21.4264 31.9243 21.3906 32.2721 21.3451 32.2721C21.3102 32.2721 21.007 32.0657 20.6834 31.8081L20.6379 31.7926C19.5635 30.9352 18.6151 29.4162 18.2208 27.9224C17.9845 27.0195 17.9845 25.3097 18.2315 24.4107C18.8825 21.984 20.6737 20.1017 23.1518 19.2192C23.6817 19.0322 24.6136 18.9314 25.4923 18.9469L25.5 18.9479ZM25.3286 22.8074C25.7325 22.8074 26.1307 22.8888 26.4242 23.0399C27.0491 23.3683 27.5702 23.998 27.7659 24.6645C28.3666 26.7027 26.2072 28.4891 24.2484 27.5756H24.2339C23.3107 27.1464 22.8156 26.3395 22.805 25.2893C22.805 24.3409 23.3291 23.5185 24.2426 23.0341C24.5303 22.883 24.9294 22.8064 25.3324 22.8064L25.3286 22.8074ZM25.3179 28.9183C26.5957 28.9134 27.5179 29.3668 27.8609 30.1689C28.1176 30.7696 28.0227 32.6615 27.578 35.7247C27.2806 37.8637 27.114 38.4033 26.7013 38.7676C26.1307 39.2713 25.3286 39.4137 24.5613 39.1405H24.5574C23.6342 38.8073 23.4366 38.3578 23.053 35.7237C22.6151 32.6615 22.5182 30.7686 22.7769 30.168C23.114 29.3707 24.0324 28.9231 25.3189 28.9173L25.3179 28.9183Z" fill="#ED8A0A"/>
</svg>
