<svg width="190" height="55" viewBox="0 0 190 55" fill="none" xmlns="http://www.w3.org/2000/svg">
<rect x="1" y="1" width="188" height="53" rx="9" fill="white" stroke="#EDB770" stroke-width="2"/>
<path d="M56.088 27.64C56.8027 27.64 57.432 27.736 57.976 27.928C58.52 28.12 58.9733 28.36 59.336 28.648C59.6987 28.936 59.9707 29.256 60.152 29.608C60.344 29.9493 60.4507 30.2747 60.472 30.584C60.4827 30.712 60.44 30.8187 60.344 30.904C60.2587 30.9787 60.1573 31.016 60.04 31.016H58.92C58.7387 31.016 58.6 30.984 58.504 30.92C58.4187 30.8453 58.3387 30.7493 58.264 30.632C58.104 30.3653 57.8587 30.136 57.528 29.944C57.208 29.7413 56.728 29.64 56.088 29.64C55.8107 29.64 55.544 29.672 55.288 29.736C55.0427 29.7893 54.824 29.8747 54.632 29.992C54.4507 30.0987 54.3067 30.232 54.2 30.392C54.0933 30.552 54.04 30.7333 54.04 30.936C54.04 31.1813 54.088 31.384 54.184 31.544C54.2907 31.6933 54.4613 31.8267 54.696 31.944C54.9413 32.0507 55.2613 32.152 55.656 32.248C56.0507 32.344 56.5413 32.456 57.128 32.584C57.768 32.7227 58.3173 32.888 58.776 33.08C59.2453 33.2613 59.624 33.4853 59.912 33.752C60.2107 34.008 60.4293 34.3067 60.568 34.648C60.7173 34.9893 60.792 35.3787 60.792 35.816C60.792 36.296 60.6853 36.744 60.472 37.16C60.2587 37.5653 59.9547 37.9173 59.56 38.216C59.1653 38.504 58.68 38.7333 58.104 38.904C57.528 39.0747 56.8827 39.16 56.168 39.16C55.5707 39.16 55 39.0907 54.456 38.952C53.912 38.8027 53.4267 38.5947 53 38.328C52.584 38.0507 52.248 37.72 51.992 37.336C51.736 36.952 51.592 36.5253 51.56 36.056C51.5493 35.928 51.5867 35.8267 51.672 35.752C51.768 35.6667 51.8747 35.624 51.992 35.624H53.112C53.2933 35.624 53.432 35.656 53.528 35.72C53.624 35.784 53.704 35.88 53.768 36.008C53.8427 36.1467 53.9333 36.2853 54.04 36.424C54.1467 36.5627 54.2907 36.6853 54.472 36.792C54.6533 36.8987 54.8773 36.9893 55.144 37.064C55.4213 37.128 55.7627 37.16 56.168 37.16C56.488 37.16 56.7973 37.1387 57.096 37.096C57.3947 37.0427 57.656 36.9627 57.88 36.856C58.104 36.7387 58.2853 36.6 58.424 36.44C58.5627 36.2693 58.632 36.0613 58.632 35.816C58.632 35.5813 58.5573 35.3893 58.408 35.24C58.2587 35.0907 58.0293 34.9627 57.72 34.856C57.4213 34.7493 57.048 34.648 56.6 34.552C56.152 34.456 55.6347 34.3333 55.048 34.184C54.5147 34.056 54.0453 33.9067 53.64 33.736C53.2453 33.5547 52.9147 33.336 52.648 33.08C52.392 32.824 52.2 32.5253 52.072 32.184C51.944 31.832 51.88 31.416 51.88 30.936C51.88 30.456 51.9867 30.0133 52.2 29.608C52.4133 29.2027 52.7067 28.856 53.08 28.568C53.4533 28.28 53.896 28.056 54.408 27.896C54.9307 27.7253 55.4907 27.64 56.088 27.64ZM66.143 30.52C66.7297 30.52 67.2577 30.6107 67.727 30.792C68.207 30.9733 68.6177 31.224 68.959 31.544C69.311 31.864 69.5883 32.2373 69.791 32.664C70.0043 33.0907 70.127 33.5493 70.159 34.04C70.1697 34.136 70.175 34.2587 70.175 34.408C70.175 34.5573 70.175 34.7067 70.175 34.856C70.175 35.0053 70.175 35.1547 70.175 35.304C70.175 35.4427 70.1697 35.56 70.159 35.656C70.1163 36.1467 69.9937 36.6053 69.791 37.032C69.5883 37.4587 69.311 37.832 68.959 38.152C68.6177 38.4613 68.207 38.7067 67.727 38.888C67.2577 39.0693 66.7297 39.16 66.143 39.16C65.5563 39.16 65.023 39.0693 64.543 38.888C64.0737 38.7067 63.663 38.4613 63.311 38.152C62.9697 37.832 62.6977 37.4587 62.495 37.032C62.2923 36.6053 62.1697 36.1467 62.127 35.656C62.1163 35.56 62.1057 35.4427 62.095 35.304C62.095 35.1547 62.095 35.0053 62.095 34.856C62.095 34.7067 62.095 34.5573 62.095 34.408C62.1057 34.2587 62.1163 34.136 62.127 34.04C62.159 33.5493 62.2763 33.0907 62.479 32.664C62.6923 32.2373 62.9697 31.864 63.311 31.544C63.663 31.224 64.0737 30.9733 64.543 30.792C65.023 30.6107 65.5563 30.52 66.143 30.52ZM68.079 34.12C68.047 33.7893 67.967 33.5173 67.839 33.304C67.7217 33.08 67.5723 32.904 67.391 32.776C67.2097 32.648 67.0123 32.5627 66.799 32.52C66.5857 32.4667 66.367 32.44 66.143 32.44C65.919 32.44 65.7003 32.4667 65.487 32.52C65.2737 32.5627 65.0763 32.648 64.895 32.776C64.7137 32.904 64.559 33.08 64.431 33.304C64.3137 33.5173 64.239 33.7893 64.207 34.12C64.1963 34.2053 64.1857 34.312 64.175 34.44C64.175 34.568 64.175 34.7013 64.175 34.84C64.175 34.9787 64.175 35.1173 64.175 35.256C64.1857 35.384 64.1963 35.4853 64.207 35.56C64.239 35.8907 64.3137 36.168 64.431 36.392C64.559 36.6053 64.7137 36.776 64.895 36.904C65.0763 37.032 65.2737 37.1227 65.487 37.176C65.7003 37.2187 65.919 37.24 66.143 37.24C66.367 37.24 66.5857 37.2187 66.799 37.176C67.0123 37.1227 67.2097 37.032 67.391 36.904C67.5723 36.776 67.7217 36.6053 67.839 36.392C67.967 36.168 68.047 35.8907 68.079 35.56C68.0897 35.4853 68.095 35.384 68.095 35.256C68.095 35.1173 68.095 34.9787 68.095 34.84C68.095 34.7013 68.095 34.568 68.095 34.44C68.095 34.312 68.0897 34.2053 68.079 34.12ZM71.9146 31.112C71.9146 30.9947 71.9573 30.8933 72.0426 30.808C72.128 30.7227 72.2293 30.68 72.3466 30.68H73.5626C73.68 30.68 73.7813 30.7227 73.8666 30.808C73.952 30.8933 73.9946 30.9947 73.9946 31.112V35.176C73.9946 35.816 74.128 36.328 74.3946 36.712C74.672 37.096 75.12 37.288 75.7386 37.288C76.304 37.288 76.736 37.096 77.0346 36.712C77.3333 36.328 77.4826 35.816 77.4826 35.176V31.112C77.4826 30.9947 77.5253 30.8933 77.6106 30.808C77.696 30.7227 77.7973 30.68 77.9146 30.68H79.1306C79.248 30.68 79.3493 30.7227 79.4346 30.808C79.52 30.8933 79.5626 30.9947 79.5626 31.112V38.568C79.5626 38.6853 79.52 38.7867 79.4346 38.872C79.3493 38.9573 79.248 39 79.1306 39H77.9146C77.7973 39 77.696 38.9573 77.6106 38.872C77.5253 38.7867 77.4826 38.6853 77.4826 38.568V38.2C77.2373 38.4453 76.9333 38.6693 76.5706 38.872C76.208 39.064 75.7706 39.16 75.2586 39.16C74.608 39.16 74.0693 39.0587 73.6426 38.856C73.216 38.6533 72.8746 38.3813 72.6186 38.04C72.3626 37.6987 72.1813 37.304 72.0746 36.856C71.968 36.3973 71.9146 35.9173 71.9146 35.416V31.112ZM89.5839 38.568C89.5839 38.6853 89.5412 38.7867 89.4559 38.872C89.3705 38.9573 89.2692 39 89.1519 39H87.9359C87.8185 39 87.7172 38.9573 87.6319 38.872C87.5465 38.7867 87.5039 38.6853 87.5039 38.568V34.504C87.5039 33.864 87.3545 33.352 87.0559 32.968C86.7572 32.584 86.2985 32.392 85.6799 32.392C85.1145 32.392 84.6665 32.584 84.3359 32.968C84.0159 33.352 83.8559 33.864 83.8559 34.504V38.568C83.8559 38.6853 83.8132 38.7867 83.7279 38.872C83.6425 38.9573 83.5412 39 83.4239 39H82.2079C82.0905 39 81.9892 38.9573 81.9039 38.872C81.8185 38.7867 81.7759 38.6853 81.7759 38.568V31.112C81.7759 30.9947 81.8185 30.8933 81.9039 30.808C81.9892 30.7227 82.0905 30.68 82.2079 30.68H83.4239C83.5412 30.68 83.6425 30.7227 83.7279 30.808C83.8132 30.8933 83.8559 30.9947 83.8559 31.112V31.48C84.1332 31.2027 84.4585 30.9733 84.8319 30.792C85.2052 30.6107 85.6479 30.52 86.1599 30.52C86.8105 30.52 87.3545 30.6213 87.7919 30.824C88.2292 31.0267 88.5812 31.2987 88.8479 31.64C89.1145 31.9813 89.3012 32.3813 89.4079 32.84C89.5252 33.288 89.5839 33.7627 89.5839 34.264V38.568ZM94.9134 30.52C95.244 30.52 95.5374 30.552 95.7934 30.616C96.06 30.68 96.2894 30.76 96.4814 30.856C96.684 30.952 96.8547 31.0587 96.9934 31.176C97.132 31.2827 97.244 31.384 97.3294 31.48V28.072C97.3294 27.9547 97.372 27.8533 97.4574 27.768C97.5427 27.6827 97.644 27.64 97.7614 27.64H98.9774C99.0947 27.64 99.196 27.6827 99.2814 27.768C99.3667 27.8533 99.4094 27.9547 99.4094 28.072V38.568C99.4094 38.6853 99.3667 38.7867 99.2814 38.872C99.196 38.9573 99.0947 39 98.9774 39H97.7614C97.644 39 97.5427 38.9573 97.4574 38.872C97.372 38.7867 97.3294 38.6853 97.3294 38.568V38.2C97.244 38.296 97.132 38.4027 96.9934 38.52C96.8547 38.6267 96.684 38.728 96.4814 38.824C96.2894 38.92 96.06 39 95.7934 39.064C95.5374 39.128 95.244 39.16 94.9134 39.16C94.38 39.16 93.8947 39.0587 93.4574 38.856C93.0307 38.6427 92.6627 38.3653 92.3534 38.024C92.0547 37.672 91.8147 37.272 91.6334 36.824C91.4627 36.3653 91.3667 35.8907 91.3454 35.4C91.3347 35.24 91.3294 35.0533 91.3294 34.84C91.3294 34.6267 91.3347 34.44 91.3454 34.28C91.3667 33.7893 91.4627 33.32 91.6334 32.872C91.8147 32.4133 92.0547 32.0133 92.3534 31.672C92.6627 31.32 93.0307 31.0427 93.4574 30.84C93.8947 30.6267 94.38 30.52 94.9134 30.52ZM93.4254 34.392C93.3934 34.6907 93.3934 34.9893 93.4254 35.288C93.4894 35.9813 93.7027 36.4827 94.0654 36.792C94.428 37.0907 94.8707 37.24 95.3934 37.24C95.916 37.24 96.3534 37.0853 96.7054 36.776C97.068 36.4667 97.276 36.024 97.3294 35.448C97.3507 35.288 97.3614 35.0853 97.3614 34.84C97.3614 34.5947 97.3507 34.392 97.3294 34.232C97.276 33.6773 97.068 33.24 96.7054 32.92C96.3534 32.6 95.916 32.44 95.3934 32.44C94.8707 32.44 94.428 32.5947 94.0654 32.904C93.7027 33.2027 93.4894 33.6987 93.4254 34.392ZM103.3 34.28C103.278 34.44 103.268 34.6267 103.268 34.84C103.268 35.0533 103.278 35.24 103.3 35.4C103.332 35.7307 103.406 36.0133 103.524 36.248C103.641 36.4827 103.785 36.6747 103.956 36.824C104.137 36.9627 104.334 37.0693 104.548 37.144C104.761 37.208 104.98 37.24 105.204 37.24C105.47 37.24 105.694 37.2187 105.876 37.176C106.057 37.1333 106.212 37.0747 106.34 37C106.468 36.9147 106.574 36.824 106.66 36.728C106.756 36.6213 106.846 36.504 106.932 36.376C106.996 36.28 107.07 36.184 107.156 36.088C107.241 35.992 107.342 35.944 107.46 35.944H108.676C108.793 35.944 108.894 35.9867 108.98 36.072C109.076 36.1573 109.118 36.2587 109.108 36.376C109.097 36.6 109.017 36.872 108.868 37.192C108.718 37.512 108.484 37.8213 108.164 38.12C107.854 38.408 107.454 38.6533 106.964 38.856C106.473 39.0587 105.886 39.16 105.204 39.16C104.617 39.16 104.089 39.064 103.62 38.872C103.15 38.6693 102.74 38.4027 102.388 38.072C102.046 37.7307 101.774 37.3413 101.572 36.904C101.38 36.456 101.262 35.9867 101.22 35.496C101.198 35.304 101.188 35.0907 101.188 34.856C101.188 34.6213 101.198 34.4027 101.22 34.2C101.252 33.7093 101.369 33.24 101.572 32.792C101.774 32.344 102.046 31.9547 102.388 31.624C102.729 31.2827 103.134 31.016 103.604 30.824C104.084 30.6213 104.617 30.52 105.204 30.52C105.886 30.52 106.473 30.6213 106.964 30.824C107.454 31.0267 107.854 31.2773 108.164 31.576C108.484 31.864 108.718 32.168 108.868 32.488C109.017 32.808 109.097 33.08 109.108 33.304C109.118 33.4213 109.076 33.5227 108.98 33.608C108.894 33.6933 108.793 33.736 108.676 33.736H107.46C107.342 33.736 107.241 33.688 107.156 33.592C107.07 33.496 106.996 33.4 106.932 33.304C106.846 33.176 106.756 33.064 106.66 32.968C106.574 32.8613 106.468 32.7707 106.34 32.696C106.212 32.6107 106.057 32.5467 105.876 32.504C105.694 32.4613 105.47 32.44 105.204 32.44C104.98 32.44 104.761 32.4773 104.548 32.552C104.334 32.616 104.137 32.7227 103.956 32.872C103.785 33.0107 103.641 33.1973 103.524 33.432C103.406 33.6667 103.332 33.9493 103.3 34.28ZM112.934 38.568C112.934 38.6853 112.891 38.7867 112.806 38.872C112.721 38.9573 112.619 39 112.502 39H111.286C111.169 39 111.067 38.9573 110.982 38.872C110.897 38.7867 110.854 38.6853 110.854 38.568V28.072C110.854 27.9547 110.897 27.8533 110.982 27.768C111.067 27.6827 111.169 27.64 111.286 27.64H112.502C112.619 27.64 112.721 27.6827 112.806 27.768C112.891 27.8533 112.934 27.9547 112.934 28.072V38.568ZM118.799 30.52C119.386 30.52 119.914 30.6107 120.383 30.792C120.863 30.9733 121.274 31.224 121.615 31.544C121.967 31.864 122.245 32.2373 122.447 32.664C122.661 33.0907 122.783 33.5493 122.815 34.04C122.826 34.136 122.831 34.2587 122.831 34.408C122.831 34.5573 122.831 34.7067 122.831 34.856C122.831 35.0053 122.831 35.1547 122.831 35.304C122.831 35.4427 122.826 35.56 122.815 35.656C122.773 36.1467 122.65 36.6053 122.447 37.032C122.245 37.4587 121.967 37.832 121.615 38.152C121.274 38.4613 120.863 38.7067 120.383 38.888C119.914 39.0693 119.386 39.16 118.799 39.16C118.213 39.16 117.679 39.0693 117.199 38.888C116.73 38.7067 116.319 38.4613 115.967 38.152C115.626 37.832 115.354 37.4587 115.151 37.032C114.949 36.6053 114.826 36.1467 114.783 35.656C114.773 35.56 114.762 35.4427 114.751 35.304C114.751 35.1547 114.751 35.0053 114.751 34.856C114.751 34.7067 114.751 34.5573 114.751 34.408C114.762 34.2587 114.773 34.136 114.783 34.04C114.815 33.5493 114.933 33.0907 115.135 32.664C115.349 32.2373 115.626 31.864 115.967 31.544C116.319 31.224 116.73 30.9733 117.199 30.792C117.679 30.6107 118.213 30.52 118.799 30.52ZM120.735 34.12C120.703 33.7893 120.623 33.5173 120.495 33.304C120.378 33.08 120.229 32.904 120.047 32.776C119.866 32.648 119.669 32.5627 119.455 32.52C119.242 32.4667 119.023 32.44 118.799 32.44C118.575 32.44 118.357 32.4667 118.143 32.52C117.93 32.5627 117.733 32.648 117.551 32.776C117.37 32.904 117.215 33.08 117.087 33.304C116.97 33.5173 116.895 33.7893 116.863 34.12C116.853 34.2053 116.842 34.312 116.831 34.44C116.831 34.568 116.831 34.7013 116.831 34.84C116.831 34.9787 116.831 35.1173 116.831 35.256C116.842 35.384 116.853 35.4853 116.863 35.56C116.895 35.8907 116.97 36.168 117.087 36.392C117.215 36.6053 117.37 36.776 117.551 36.904C117.733 37.032 117.93 37.1227 118.143 37.176C118.357 37.2187 118.575 37.24 118.799 37.24C119.023 37.24 119.242 37.2187 119.455 37.176C119.669 37.1227 119.866 37.032 120.047 36.904C120.229 36.776 120.378 36.6053 120.495 36.392C120.623 36.168 120.703 35.8907 120.735 35.56C120.746 35.4853 120.751 35.384 120.751 35.256C120.751 35.1173 120.751 34.9787 120.751 34.84C120.751 34.7013 120.751 34.568 120.751 34.44C120.751 34.312 120.746 34.2053 120.735 34.12ZM124.571 31.112C124.571 30.9947 124.614 30.8933 124.699 30.808C124.784 30.7227 124.886 30.68 125.003 30.68H126.219C126.336 30.68 126.438 30.7227 126.523 30.808C126.608 30.8933 126.651 30.9947 126.651 31.112V35.176C126.651 35.816 126.784 36.328 127.051 36.712C127.328 37.096 127.776 37.288 128.395 37.288C128.96 37.288 129.392 37.096 129.691 36.712C129.99 36.328 130.139 35.816 130.139 35.176V31.112C130.139 30.9947 130.182 30.8933 130.267 30.808C130.352 30.7227 130.454 30.68 130.571 30.68H131.787C131.904 30.68 132.006 30.7227 132.091 30.808C132.176 30.8933 132.219 30.9947 132.219 31.112V38.568C132.219 38.6853 132.176 38.7867 132.091 38.872C132.006 38.9573 131.904 39 131.787 39H130.571C130.454 39 130.352 38.9573 130.267 38.872C130.182 38.7867 130.139 38.6853 130.139 38.568V38.2C129.894 38.4453 129.59 38.6693 129.227 38.872C128.864 39.064 128.427 39.16 127.915 39.16C127.264 39.16 126.726 39.0587 126.299 38.856C125.872 38.6533 125.531 38.3813 125.275 38.04C125.019 37.6987 124.838 37.304 124.731 36.856C124.624 36.3973 124.571 35.9173 124.571 35.416V31.112ZM137.632 30.52C137.963 30.52 138.256 30.552 138.512 30.616C138.779 30.68 139.008 30.76 139.2 30.856C139.403 30.952 139.573 31.0587 139.712 31.176C139.851 31.2827 139.963 31.384 140.048 31.48V28.072C140.048 27.9547 140.091 27.8533 140.176 27.768C140.261 27.6827 140.363 27.64 140.48 27.64H141.696C141.813 27.64 141.915 27.6827 142 27.768C142.085 27.8533 142.128 27.9547 142.128 28.072V38.568C142.128 38.6853 142.085 38.7867 142 38.872C141.915 38.9573 141.813 39 141.696 39H140.48C140.363 39 140.261 38.9573 140.176 38.872C140.091 38.7867 140.048 38.6853 140.048 38.568V38.2C139.963 38.296 139.851 38.4027 139.712 38.52C139.573 38.6267 139.403 38.728 139.2 38.824C139.008 38.92 138.779 39 138.512 39.064C138.256 39.128 137.963 39.16 137.632 39.16C137.099 39.16 136.613 39.0587 136.176 38.856C135.749 38.6427 135.381 38.3653 135.072 38.024C134.773 37.672 134.533 37.272 134.352 36.824C134.181 36.3653 134.085 35.8907 134.064 35.4C134.053 35.24 134.048 35.0533 134.048 34.84C134.048 34.6267 134.053 34.44 134.064 34.28C134.085 33.7893 134.181 33.32 134.352 32.872C134.533 32.4133 134.773 32.0133 135.072 31.672C135.381 31.32 135.749 31.0427 136.176 30.84C136.613 30.6267 137.099 30.52 137.632 30.52ZM136.144 34.392C136.112 34.6907 136.112 34.9893 136.144 35.288C136.208 35.9813 136.421 36.4827 136.784 36.792C137.147 37.0907 137.589 37.24 138.112 37.24C138.635 37.24 139.072 37.0853 139.424 36.776C139.787 36.4667 139.995 36.024 140.048 35.448C140.069 35.288 140.08 35.0853 140.08 34.84C140.08 34.5947 140.069 34.392 140.048 34.232C139.995 33.6773 139.787 33.24 139.424 32.92C139.072 32.6 138.635 32.44 138.112 32.44C137.589 32.44 137.147 32.5947 136.784 32.904C136.421 33.2027 136.208 33.6987 136.144 34.392Z" fill="#180E01"/>
<path opacity="0.4" d="M57.76 22.83C57.8553 22.83 57.9377 22.8647 58.007 22.934C58.0763 23.0033 58.111 23.0857 58.111 23.181V23.649C58.111 23.7443 58.0763 23.8267 58.007 23.896C57.9377 23.9653 57.8553 24 57.76 24H52.469C52.3737 24 52.2913 23.9653 52.222 23.896C52.1527 23.8267 52.118 23.7443 52.118 23.649V15.251C52.118 15.1557 52.1527 15.0733 52.222 15.004C52.2913 14.9347 52.3737 14.9 52.469 14.9H53.002C53.0973 14.9 53.1797 14.9347 53.249 15.004C53.3183 15.0733 53.353 15.1557 53.353 15.251V22.83H57.76ZM60.5213 23.649C60.5213 23.7443 60.4866 23.8267 60.4173 23.896C60.3479 23.9653 60.2656 24 60.1703 24H59.6893C59.5939 24 59.5116 23.9653 59.4423 23.896C59.3729 23.8267 59.3383 23.7443 59.3383 23.649V17.591C59.3383 17.4957 59.3729 17.4133 59.4423 17.344C59.5116 17.2747 59.5939 17.24 59.6893 17.24H60.1703C60.2656 17.24 60.3479 17.2747 60.4173 17.344C60.4866 17.4133 60.5213 17.4957 60.5213 17.591V23.649ZM60.6513 15.862C60.6513 15.9573 60.6166 16.0397 60.5473 16.109C60.4779 16.1783 60.3956 16.213 60.3003 16.213H59.5593C59.4639 16.213 59.3816 16.1783 59.3123 16.109C59.2429 16.0397 59.2083 15.9573 59.2083 15.862V15.121C59.2083 15.0257 59.2429 14.9433 59.3123 14.874C59.3816 14.8047 59.4639 14.77 59.5593 14.77H60.3003C60.3956 14.77 60.4779 14.8047 60.5473 14.874C60.6166 14.9433 60.6513 15.0257 60.6513 15.121V15.862ZM66.322 22.128C66.322 21.9633 66.2744 21.829 66.179 21.725C66.0924 21.6123 65.958 21.517 65.776 21.439C65.594 21.361 65.36 21.2873 65.074 21.218C64.7967 21.1487 64.4717 21.075 64.099 20.997C63.397 20.8497 62.903 20.607 62.617 20.269C62.3397 19.9223 62.201 19.5193 62.201 19.06C62.201 18.8 62.253 18.553 62.357 18.319C62.461 18.085 62.617 17.877 62.825 17.695C63.033 17.513 63.293 17.37 63.605 17.266C63.9257 17.162 64.2984 17.11 64.723 17.11C65.1477 17.11 65.516 17.1577 65.828 17.253C66.1487 17.3483 66.4174 17.4697 66.634 17.617C66.8507 17.7643 67.0154 17.9247 67.128 18.098C67.2407 18.2627 67.3014 18.423 67.31 18.579C67.3187 18.6743 67.284 18.7567 67.206 18.826C67.1367 18.8953 67.0544 18.93 66.959 18.93H66.53C66.478 18.93 66.413 18.9213 66.335 18.904C66.2657 18.878 66.2007 18.826 66.14 18.748C66.0274 18.6007 65.8584 18.4793 65.633 18.384C65.4164 18.28 65.113 18.228 64.723 18.228C64.3244 18.228 63.9994 18.3017 63.748 18.449C63.5054 18.5963 63.384 18.8 63.384 19.06C63.384 19.2247 63.4187 19.359 63.488 19.463C63.5574 19.5583 63.67 19.645 63.826 19.723C63.982 19.7923 64.1857 19.8573 64.437 19.918C64.697 19.9787 65.0177 20.0523 65.399 20.139C65.7977 20.2257 66.1314 20.3383 66.4 20.477C66.6687 20.607 66.8854 20.7587 67.05 20.932C67.2147 21.0967 67.3317 21.283 67.401 21.491C67.4704 21.6903 67.505 21.9027 67.505 22.128C67.505 22.388 67.44 22.6393 67.31 22.882C67.1887 23.1247 67.011 23.337 66.777 23.519C66.543 23.701 66.257 23.8483 65.919 23.961C65.5897 24.0737 65.2127 24.13 64.788 24.13C64.3634 24.13 63.9864 24.078 63.657 23.974C63.3277 23.87 63.046 23.7443 62.812 23.597C62.578 23.441 62.396 23.2763 62.266 23.103C62.1447 22.921 62.0797 22.752 62.071 22.596C62.0624 22.5007 62.0927 22.4183 62.162 22.349C62.2314 22.2797 62.318 22.245 62.422 22.245H62.89C62.942 22.245 63.0027 22.2537 63.072 22.271C63.1414 22.2797 63.2064 22.3273 63.267 22.414C63.4057 22.6047 63.5964 22.752 63.839 22.856C64.0817 22.96 64.398 23.012 64.788 23.012C64.9787 23.012 65.165 22.9903 65.347 22.947C65.5377 22.9037 65.7024 22.843 65.841 22.765C65.9884 22.687 66.1054 22.596 66.192 22.492C66.2787 22.3793 66.322 22.258 66.322 22.128ZM70.8182 21.725C70.8182 21.8897 70.8312 22.0457 70.8572 22.193C70.8919 22.3317 70.9482 22.453 71.0262 22.557C71.1042 22.661 71.2125 22.7433 71.3512 22.804C71.4985 22.856 71.6849 22.882 71.9102 22.882H72.5992C72.6945 22.882 72.7769 22.9167 72.8462 22.986C72.9155 23.0553 72.9502 23.1377 72.9502 23.233V23.649C72.9502 23.7443 72.9155 23.8267 72.8462 23.896C72.7769 23.9653 72.6945 24 72.5992 24H71.7802C71.0262 24 70.4802 23.805 70.1422 23.415C69.8042 23.025 69.6352 22.4617 69.6352 21.725V18.358H68.6732C68.5779 18.358 68.4955 18.3233 68.4262 18.254C68.3569 18.1847 68.3222 18.1023 68.3222 18.007V17.591C68.3222 17.4957 68.3569 17.4133 68.4262 17.344C68.4955 17.2747 68.5779 17.24 68.6732 17.24H69.6352V15.121C69.6352 15.0257 69.6699 14.9433 69.7392 14.874C69.8085 14.8047 69.8909 14.77 69.9862 14.77H70.4672C70.5625 14.77 70.6449 14.8047 70.7142 14.874C70.7835 14.9433 70.8182 15.0257 70.8182 15.121V17.24H72.4692C72.5645 17.24 72.6469 17.2747 72.7162 17.344C72.7855 17.4133 72.8202 17.4957 72.8202 17.591V18.007C72.8202 18.1023 72.7855 18.1847 72.7162 18.254C72.6469 18.3233 72.5645 18.358 72.4692 18.358H70.8182V21.725ZM73.9433 19.97C73.9779 19.5713 74.0733 19.1987 74.2293 18.852C74.3853 18.5053 74.5889 18.202 74.8403 17.942C75.0916 17.682 75.3906 17.4783 75.7373 17.331C76.0926 17.1837 76.4869 17.11 76.9203 17.11C77.3883 17.11 77.8043 17.188 78.1683 17.344C78.5409 17.4913 78.8573 17.708 79.1173 17.994C79.3773 18.28 79.5766 18.6267 79.7153 19.034C79.8539 19.4413 79.9233 19.8963 79.9233 20.399V20.75C79.9233 20.8453 79.8886 20.9277 79.8193 20.997C79.7499 21.0663 79.6676 21.101 79.5723 21.101H75.1003V21.179C75.1176 21.7683 75.2953 22.2233 75.6333 22.544C75.9799 22.856 76.4089 23.012 76.9203 23.012C77.3969 23.012 77.7523 22.947 77.9863 22.817C78.2289 22.6783 78.4239 22.5267 78.5713 22.362C78.6406 22.2927 78.7013 22.245 78.7533 22.219C78.8053 22.193 78.8833 22.18 78.9873 22.18H79.3773C79.4726 22.18 79.5593 22.2147 79.6373 22.284C79.7153 22.3533 79.7456 22.4357 79.7283 22.531C79.7023 22.687 79.6286 22.8603 79.5073 23.051C79.3859 23.233 79.2083 23.4063 78.9743 23.571C78.7489 23.727 78.4629 23.8613 78.1163 23.974C77.7783 24.078 77.3796 24.13 76.9203 24.13C76.4869 24.13 76.0969 24.0563 75.7503 23.909C75.4036 23.753 75.1003 23.545 74.8403 23.285C74.5889 23.0163 74.3853 22.7043 74.2293 22.349C74.0733 21.985 73.9779 21.5907 73.9433 21.166C73.8999 20.7673 73.8999 20.3687 73.9433 19.97ZM75.1003 20.009H78.7533V19.97C78.7533 19.4413 78.5843 19.021 78.2463 18.709C77.9169 18.3883 77.4749 18.228 76.9203 18.228C76.6689 18.228 76.4349 18.2713 76.2183 18.358C76.0016 18.436 75.8109 18.553 75.6463 18.709C75.4816 18.8563 75.3516 19.0383 75.2563 19.255C75.1609 19.4717 75.1089 19.71 75.1003 19.97V20.009ZM87.4976 23.649C87.4976 23.7443 87.4629 23.8267 87.3936 23.896C87.3243 23.9653 87.2419 24 87.1466 24H86.6656C86.5703 24 86.4879 23.9653 86.4186 23.896C86.3493 23.8267 86.3146 23.7443 86.3146 23.649V20.217C86.3146 19.5497 86.1543 19.0513 85.8336 18.722C85.5129 18.3927 85.0666 18.228 84.4946 18.228C83.9486 18.228 83.5066 18.3927 83.1686 18.722C82.8393 19.0513 82.6746 19.5497 82.6746 20.217V23.649C82.6746 23.7443 82.6399 23.8267 82.5706 23.896C82.5013 23.9653 82.4189 24 82.3236 24H81.8426C81.7473 24 81.6649 23.9653 81.5956 23.896C81.5263 23.8267 81.4916 23.7443 81.4916 23.649V17.591C81.4916 17.4957 81.5263 17.4133 81.5956 17.344C81.6649 17.2747 81.7473 17.24 81.8426 17.24H82.3236C82.4189 17.24 82.5013 17.2747 82.5706 17.344C82.6399 17.4133 82.6746 17.4957 82.6746 17.591V17.994C82.8393 17.7773 83.0819 17.578 83.4026 17.396C83.7319 17.2053 84.1609 17.11 84.6896 17.11C85.0969 17.11 85.4739 17.1793 85.8206 17.318C86.1673 17.448 86.4619 17.6387 86.7046 17.89C86.9559 18.1327 87.1509 18.436 87.2896 18.8C87.4283 19.164 87.4976 19.5713 87.4976 20.022V23.649ZM95.3309 17.11C95.7989 17.11 96.2149 17.1837 96.5789 17.331C96.9429 17.4697 97.2549 17.6647 97.5149 17.916C97.7749 18.1673 97.9786 18.475 98.1259 18.839C98.2819 19.1943 98.3772 19.5843 98.4119 20.009C98.4206 20.087 98.4249 20.1823 98.4249 20.295C98.4249 20.399 98.4249 20.5117 98.4249 20.633C98.4249 20.7457 98.4249 20.8583 98.4249 20.971C98.4249 21.075 98.4206 21.1617 98.4119 21.231C98.3686 21.6643 98.2732 22.0587 98.1259 22.414C97.9786 22.7693 97.7749 23.0727 97.5149 23.324C97.2549 23.5753 96.9429 23.7747 96.5789 23.922C96.2149 24.0607 95.7989 24.13 95.3309 24.13C94.8629 24.13 94.4469 24.0607 94.0829 23.922C93.7189 23.7747 93.4069 23.5753 93.1469 23.324C92.8869 23.0727 92.6789 22.7693 92.5229 22.414C92.3756 22.0587 92.2846 21.6643 92.2499 21.231C92.2412 21.1617 92.2326 21.075 92.2239 20.971C92.2239 20.8583 92.2239 20.7457 92.2239 20.633C92.2239 20.5117 92.2239 20.399 92.2239 20.295C92.2326 20.1823 92.2412 20.087 92.2499 20.009C92.2846 19.5843 92.3756 19.1943 92.5229 18.839C92.6789 18.475 92.8869 18.1673 93.1469 17.916C93.4069 17.6647 93.7189 17.4697 94.0829 17.331C94.4469 17.1837 94.8629 17.11 95.3309 17.11ZM97.2289 21.166C97.2462 21.0187 97.2549 20.841 97.2549 20.633C97.2549 20.4163 97.2462 20.23 97.2289 20.074C97.2029 19.814 97.1466 19.5713 97.0599 19.346C96.9732 19.1207 96.8519 18.9257 96.6959 18.761C96.5399 18.5963 96.3492 18.4663 96.1239 18.371C95.8986 18.2757 95.6342 18.228 95.3309 18.228C95.0276 18.228 94.7632 18.2757 94.5379 18.371C94.3126 18.4663 94.1219 18.5963 93.9659 18.761C93.8099 18.9257 93.6886 19.1207 93.6019 19.346C93.5152 19.5713 93.4589 19.814 93.4329 20.074C93.4156 20.23 93.4069 20.4163 93.4069 20.633C93.4069 20.841 93.4156 21.0187 93.4329 21.166C93.4589 21.426 93.5152 21.6687 93.6019 21.894C93.6886 22.1193 93.8099 22.3143 93.9659 22.479C94.1219 22.6437 94.3126 22.7737 94.5379 22.869C94.7632 22.9643 95.0276 23.012 95.3309 23.012C95.6342 23.012 95.8986 22.9643 96.1239 22.869C96.3492 22.7737 96.5399 22.6437 96.6959 22.479C96.8519 22.3143 96.9732 22.1193 97.0599 21.894C97.1466 21.6687 97.2029 21.426 97.2289 21.166ZM106.071 23.649C106.071 23.7443 106.036 23.8267 105.967 23.896C105.898 23.9653 105.815 24 105.72 24H105.239C105.144 24 105.061 23.9653 104.992 23.896C104.923 23.8267 104.888 23.7443 104.888 23.649V20.217C104.888 19.5497 104.728 19.0513 104.407 18.722C104.086 18.3927 103.64 18.228 103.068 18.228C102.522 18.228 102.08 18.3927 101.742 18.722C101.413 19.0513 101.248 19.5497 101.248 20.217V23.649C101.248 23.7443 101.213 23.8267 101.144 23.896C101.075 23.9653 100.992 24 100.897 24H100.416C100.321 24 100.238 23.9653 100.169 23.896C100.1 23.8267 100.065 23.7443 100.065 23.649V17.591C100.065 17.4957 100.1 17.4133 100.169 17.344C100.238 17.2747 100.321 17.24 100.416 17.24H100.897C100.992 17.24 101.075 17.2747 101.144 17.344C101.213 17.4133 101.248 17.4957 101.248 17.591V17.994C101.413 17.7773 101.655 17.578 101.976 17.396C102.305 17.2053 102.734 17.11 103.263 17.11C103.67 17.11 104.047 17.1793 104.394 17.318C104.741 17.448 105.035 17.6387 105.278 17.89C105.529 18.1327 105.724 18.436 105.863 18.8C106.002 19.164 106.071 19.5713 106.071 20.022V23.649Z" fill="#180E01"/>
<path d="M38.0938 12H12.9062C11.3078 12 10 13.3078 10 14.9062V40.0938C10 41.6922 11.3078 43 12.9062 43H38.0938C39.6922 43 41 41.6922 41 40.0938V14.9062C41 13.3078 39.6922 12 38.0938 12ZM15.3281 33.3125H14.3594L13.875 30.4062L14.3594 27.5H15.3281L15.8125 30.4062L15.3281 33.3125ZM19.2031 33.3125H18.2344L17.75 29.4375L18.2344 25.5625H19.2031L19.6875 29.4375L19.2031 33.3125ZM23.0781 33.3125H22.1094L21.625 27.5L22.1094 21.6875H23.0781L23.5625 27.5L23.0781 33.3125ZM34.9821 33.3125L25.8584 33.3067C25.7624 33.2956 25.6736 33.2503 25.6082 33.1792C25.5427 33.1081 25.505 33.0158 25.5019 32.9192V22.4683C25.5019 22.2746 25.5678 22.1777 25.8158 22.0808C26.6561 21.7542 27.5609 21.6276 28.4586 21.7109C29.3563 21.7942 30.2223 22.0852 30.9882 22.5609C31.754 23.0366 32.3987 23.6839 32.8713 24.4517C33.3439 25.2194 33.6314 26.0866 33.7111 26.9846C34.2118 26.7757 34.7564 26.6936 35.2965 26.7457C35.8365 26.7978 36.3554 26.9824 36.807 27.2831C37.2585 27.5838 37.6289 27.9914 37.8851 28.4697C38.1414 28.9479 38.2756 29.482 38.2759 30.0246C38.2759 31.8419 36.7995 33.3125 34.9821 33.3125Z" fill="#ED8A0A"/>
</svg>
