<svg width="29" height="20" viewBox="0 0 29 20" fill="none" xmlns="http://www.w3.org/2000/svg">
<path fill-rule="evenodd" clip-rule="evenodd" d="M29 10C29 10.2652 28.8946 10.5196 28.7071 10.7071C28.5196 10.8947 28.2652 11 28 11H4.414L10.708 17.292C10.8958 17.4798 11.0013 17.7345 11.0013 18C11.0013 18.2656 10.8958 18.5202 10.708 18.708C10.5202 18.8958 10.2656 19.0013 10 19.0013C9.73445 19.0013 9.47977 18.8958 9.292 18.708L1.292 10.708C1.19887 10.6151 1.12499 10.5048 1.07458 10.3833C1.02416 10.2618 0.998213 10.1316 0.998213 10C0.998213 9.86848 1.02416 9.73824 1.07458 9.61675C1.12499 9.49526 1.19887 9.38491 1.292 9.29202L9.292 1.29202C9.47977 1.10425 9.73445 0.998756 10 0.998756C10.2656 0.998756 10.5202 1.10425 10.708 1.29202C10.8958 1.47979 11.0013 1.73447 11.0013 2.00002C11.0013 2.26557 10.8958 2.52025 10.708 2.70802L4.414 9.00002H28C28.2652 9.00002 28.5196 9.10538 28.7071 9.29291C28.8946 9.48045 29 9.7348 29 10Z" fill="#061020"/>
</svg>
